<?xml version="1.0" encoding="utf-8"?>
<!-- Generator: Adobe Illustrator 27.5.0, SVG Export Plug-In . SVG Version: 6.00 Build 0)  -->
<svg version="1.1" xmlns="http://www.w3.org/2000/svg" xmlns:xlink="http://www.w3.org/1999/xlink" x="0px" y="0px"
	 viewBox="0 0 750 500" style="enable-background:new 0 0 750 500;" xml:space="preserve">
<g id="BACKGROUND">
	<rect x="0" style="fill:#E9F2FF;" width="750" height="500"/>
</g>
<g id="OBJECTS">
	<g>
		<defs>
			<rect id="SVGID_1_" x="0" width="750" height="500"/>
		</defs>
		<clipPath id="SVGID_00000093891179555465090510000001675075487924672953_">
			<use xlink:href="#SVGID_1_"  style="overflow:visible;"/>
		</clipPath>
		<g style="clip-path:url(#SVGID_00000093891179555465090510000001675075487924672953_);">
			<g>
				<g>
					<path style="fill:#3E8F7D;" d="M97.701,427.247c5.28-24.889-7.363-34.193-24.767-47.92
						c-18.03-14.22-31.547-25.596-21.764-48.764c3.397-8.045,5.864-14.338,6.018-23.226c39.176,24.944,80.569,59.478,48.972,107.73
						c-2.791,4.263-5.48,6.837-6.011,12.386L97.701,427.247z"/>
					<path style="fill:#3E8F7D;" d="M79.004,426.866c-10.637-1.271-22.684-5.736-28.637-13.612
						c-6.869-9.087-8.223-20.987-14.724-30.361c19.409,6.71,43.728,12.712,51.069,34.369c1.082,3.194,1.836,6.46,2.141,9.822
						c-0.006,0.001-0.013,0.001-0.02,0.002C85.894,427.358,82.526,427.287,79.004,426.866z"/>
					<path style="fill:#3E8F7D;" d="M115.803,427.745c23.58-5.696,39.059-13.047,37.572-40.116
						c-21.106,11.428-40.337,10.793-47.295,38.547L115.803,427.745z"/>
					<g>
						<path style="fill:#276B5B;" d="M98.762,427.452c-0.04,0-0.081-0.007-0.121-0.023c-0.174-0.067-0.26-0.262-0.193-0.436
							c16.069-41.561-21.949-77.914-33.985-88.065c-0.143-0.12-0.16-0.333-0.04-0.475c0.12-0.142,0.332-0.161,0.475-0.04
							c7.678,6.476,21.863,20.001,30.605,37.817c8.645,17.619,9.847,34.78,3.573,51.006
							C99.025,427.37,98.897,427.452,98.762,427.452z"/>
					</g>
					<g>
						<path style="fill:#276B5B;" d="M92.542,371.804c-0.005,0-0.009,0-0.014,0c-0.186-0.007-0.331-0.164-0.323-0.35l0.028-0.689
							c0.326-7.927,0.932-22.68-10.252-35.879c-0.12-0.142-0.102-0.355,0.039-0.475c0.142-0.121,0.355-0.103,0.475,0.039
							c11.354,13.4,10.741,28.325,10.412,36.342l-0.028,0.689C92.871,371.662,92.721,371.804,92.542,371.804z"/>
					</g>
					<g>
						<path style="fill:#276B5B;" d="M99.027,386.783c-0.05,0-0.102-0.012-0.15-0.036c-5.9-2.952-16.824-9.428-22.053-13.074
							c-0.153-0.106-0.19-0.316-0.084-0.469c0.106-0.152,0.316-0.19,0.469-0.084c5.209,3.632,16.091,10.083,21.969,13.024
							c0.167,0.083,0.234,0.286,0.15,0.452C99.269,386.715,99.151,386.783,99.027,386.783z"/>
					</g>
					<g>
						<path style="fill:#276B5B;" d="M85.067,427.769c-0.15,0-0.287-0.101-0.326-0.253c-1.565-6.067-7.512-14.722-14.798-21.535
							c-8.361-7.819-16.895-11.884-23.414-11.146c-0.189,0.02-0.352-0.113-0.373-0.297c-0.021-0.185,0.112-0.352,0.297-0.373
							c6.715-0.755,15.444,3.369,23.95,11.324c7.371,6.894,13.396,15.678,14.991,21.859c0.046,0.18-0.062,0.364-0.242,0.411
							C85.123,427.765,85.095,427.769,85.067,427.769z"/>
					</g>
					<g>
						<path style="fill:#276B5B;" d="M108.903,424.632c-0.061,0-0.122-0.016-0.177-0.05c-0.158-0.098-0.207-0.306-0.109-0.464
							c5.356-8.651,13.214-12.473,21.532-16.52c4.277-2.08,8.699-4.231,12.746-7.1c0.152-0.108,0.362-0.072,0.47,0.08
							c0.108,0.152,0.072,0.362-0.08,0.47c-4.092,2.901-8.539,5.064-12.841,7.157c-8.228,4.003-16,7.783-21.254,16.268
							C109.125,424.576,109.015,424.632,108.903,424.632z"/>
					</g>
					<g>
						<path style="fill:#276B5B;" d="M101.084,392.22c-0.06,0-0.12-0.016-0.175-0.049c-0.159-0.097-0.209-0.304-0.112-0.463
							c3.777-6.191,3.044-14.07,2.336-21.69c-0.27-2.913-0.55-5.924-0.555-8.732c0-0.186,0.15-0.337,0.336-0.338
							c0,0,0.001,0,0.001,0c0.186,0,0.337,0.15,0.337,0.336c0.004,2.778,0.27,5.641,0.552,8.672
							c0.718,7.729,1.461,15.722-2.432,22.103C101.308,392.163,101.197,392.22,101.084,392.22z"/>
					</g>
				</g>
				<g>
					<path style="fill:#3E8F7D;" d="M641.391,453.115c-6.814-32.12,9.502-44.127,31.962-61.842
						c23.268-18.351,40.713-33.032,28.088-62.932c-4.384-10.382-7.568-18.503-7.766-29.973
						c-50.557,32.192-103.977,76.758-63.2,139.029c3.602,5.501,7.072,8.824,7.757,15.984L641.391,453.115z"/>
					<path style="fill:#3E8F7D;" d="M665.52,452.622c13.727-1.641,29.275-7.402,36.957-17.566
						c8.864-11.727,10.612-27.085,19.002-39.182c-25.048,8.659-56.432,16.406-65.906,44.355c-1.397,4.122-2.369,8.336-2.763,12.676
						c0.008,0.001,0.017,0.002,0.025,0.003C656.629,453.257,660.975,453.166,665.52,452.622z"/>
					<path style="fill:#3E8F7D;" d="M618.031,453.757c-30.43-7.351-50.406-16.837-48.488-51.77
						c27.238,14.748,52.056,13.929,61.035,49.746L618.031,453.757z"/>
					<g>
						<path style="fill:#276B5B;" d="M640.022,453.379c0.052,0,0.105-0.009,0.157-0.029c0.224-0.087,0.335-0.339,0.248-0.562
							c-20.738-53.636,28.326-100.55,43.858-113.651c0.184-0.155,0.207-0.429,0.052-0.613c-0.155-0.183-0.429-0.208-0.613-0.052
							c-9.908,8.358-28.215,25.812-39.497,48.804c-11.157,22.738-12.708,44.884-4.611,65.825
							C639.683,453.273,639.847,453.379,640.022,453.379z"/>
					</g>
					<g>
						<path style="fill:#276B5B;" d="M648.05,381.564c0.006,0,0.012,0,0.018,0c0.24-0.01,0.427-0.212,0.417-0.452l-0.036-0.889
							c-0.42-10.23-1.202-29.27,13.231-46.303c0.155-0.183,0.132-0.458-0.051-0.613c-0.183-0.156-0.458-0.133-0.612,0.05
							c-14.653,17.293-13.862,36.554-13.437,46.901l0.036,0.889C647.625,381.38,647.818,381.564,648.05,381.564z"/>
					</g>
					<g>
						<path style="fill:#276B5B;" d="M639.681,400.894c0.065,0,0.132-0.015,0.194-0.046c7.615-3.81,21.711-12.167,28.46-16.872
							c0.197-0.137,0.245-0.408,0.108-0.605c-0.137-0.197-0.407-0.245-0.605-0.108c-6.722,4.687-20.766,13.012-28.352,16.808
							c-0.215,0.108-0.302,0.368-0.194,0.583C639.367,400.806,639.521,400.894,639.681,400.894z"/>
					</g>
					<g>
						<path style="fill:#276B5B;" d="M657.697,453.787c0.194,0,0.37-0.13,0.421-0.326c2.02-7.83,9.695-18.999,19.097-27.792
							c10.79-10.091,21.803-15.336,30.217-14.384c0.244,0.026,0.454-0.145,0.481-0.384c0.027-0.239-0.145-0.454-0.384-0.481
							c-8.666-0.974-19.931,4.348-30.909,14.613c-9.513,8.896-17.287,20.233-19.346,28.209c-0.06,0.233,0.081,0.469,0.313,0.53
							C657.624,453.783,657.66,453.787,657.697,453.787z"/>
					</g>
					<g>
						<path style="fill:#276B5B;" d="M626.936,449.74c0.078,0,0.157-0.021,0.229-0.065c0.204-0.127,0.267-0.394,0.141-0.599
							c-6.912-11.164-17.053-16.097-27.788-21.319c-5.519-2.685-11.226-5.46-16.449-9.163c-0.196-0.14-0.468-0.093-0.606,0.103
							c-0.139,0.196-0.093,0.468,0.103,0.606c5.281,3.744,11.02,6.536,16.571,9.236c10.619,5.165,20.649,10.044,27.428,20.995
							C626.648,449.667,626.79,449.74,626.936,449.74z"/>
					</g>
					<g>
						<path style="fill:#276B5B;" d="M637.026,407.911c0.077,0,0.155-0.02,0.226-0.064c0.205-0.125,0.27-0.393,0.145-0.598
							c-4.874-7.989-3.929-18.158-3.014-27.991c0.349-3.759,0.71-7.645,0.716-11.269c0-0.24-0.194-0.435-0.434-0.436
							c0,0-0.001,0-0.001,0c-0.24,0-0.434,0.194-0.435,0.434c-0.005,3.585-0.349,7.28-0.713,11.191
							c-0.927,9.975-1.886,20.289,3.138,28.524C636.736,407.837,636.879,407.911,637.026,407.911z"/>
					</g>
				</g>
			</g>
			<path style="fill:#BACDFF;" d="M358.56,57.942c28.95-10.019,61.087-5.564,85.647,12.748c1.065,0.794,2.123,1.619,3.171,2.475
				c28.337,23.134,21.751,46.157,45.96,69.33c30.445,29.142,53.848,12.159,103.606,34.276c7.327,3.257,68.927,39.796,66.993,92.7
				c-1.514,41.407-41.465,74.352-75.562,86.468c-49.523,17.597-76.615-3.407-105.681,18.334
				c-35.447,26.515-23.683,79.314-101.531,85.272c-76.341,5.842-58.752-81.013-126.878-93.128
				c-51.416-9.144-75.447,29.328-116.556,13.087c-36.855-14.56-58.745-69.772-49.661-115.096
				c8.797-43.895,29.629-69.814,51.739-78.581c57.099-22.639,87.114-4.135,122.95-32.425c27.191-21.467,20.608-42.424,50.634-69.33
				C327.813,71.148,343.74,63.071,358.56,57.942z"/>
			<g>
				<g>
					<path style="fill:#FFFFFF;" d="M35.135,242.741c0,3.977,3.224,7.202,7.202,7.202h243.308c3.977,0,7.202-3.224,7.202-7.202
						V100.279H35.135V242.741z"/>
					<path style="opacity:0.53;fill:#5E60F4;" d="M286.381,84.825H41.601c-3.571,0-6.466,2.895-6.466,6.466v8.988h257.711v-8.988
						C292.847,87.72,289.952,84.825,286.381,84.825z"/>
					<circle style="opacity:0.53;fill:#5E60F4;" cx="45.72" cy="93.135" r="3.454"/>
					<circle style="fill:#F9CF70;" cx="60.384" cy="93.135" r="3.454"/>
					<path style="fill:#8681EA;" d="M75.049,89.68c-1.908,0-3.454,1.547-3.454,3.454s1.547,3.454,3.454,3.454
						c1.908,0,3.454-1.547,3.454-3.454S76.957,89.68,75.049,89.68z"/>
				</g>
				<rect x="160.912" y="120.951" style="opacity:0.53;fill:#5E60F4;" width="108.319" height="108.319"/>
				<g>
					
						<ellipse transform="matrix(0.7071 -0.7071 0.7071 0.7071 -60.829 203.3669)" style="fill:#5E60F4;" cx="215.071" cy="175.111" rx="46.166" ry="46.166"/>
					<g>
						<path style="fill:#F9CF70;" d="M244.893,150.425c-2.085-1.584-5.06-1.179-6.644,0.905l-28.064,36.917l-15.942-16.387
							c-1.826-1.877-4.828-1.919-6.705-0.093c-1.877,1.826-1.918,4.828-0.092,6.705l19.783,20.335
							c0.895,0.921,2.122,1.435,3.398,1.435c0.096,0,0.192-0.003,0.288-0.009c1.378-0.084,2.651-0.764,3.487-1.863l31.397-41.301
							C247.383,154.984,246.978,152.009,244.893,150.425z"/>
					</g>
				</g>
				<g>
					<g>
						<rect x="62.301" y="123.739" style="opacity:0.53;fill:#5E60F4;" width="11.13" height="43.483"/>
						<rect x="80.215" y="123.739" style="opacity:0.53;fill:#5E60F4;" width="11.13" height="43.483"/>
						<rect x="98.128" y="123.739" style="opacity:0.53;fill:#5E60F4;" width="11.13" height="43.483"/>
						<rect x="62.301" y="138.274" style="opacity:0.53;fill:#5E60F4;" width="11.13" height="28.948"/>
						<rect x="80.215" y="147.81" style="fill:#5E60F4;" width="11.13" height="19.412"/>
						<rect x="98.128" y="133.035" style="fill:#8681EA;" width="11.13" height="34.187"/>
						<rect x="116.041" y="123.739" style="opacity:0.53;fill:#5E60F4;" width="11.13" height="43.483"/>
						<rect x="116.041" y="138.274" style="fill:#F9CF70;" width="11.13" height="28.948"/>
					</g>
					<g style="opacity:0.53;">
						<rect x="51.642" y="176.39" style="fill:#5E60F4;" width="86.189" height="5.022"/>
						<rect x="51.642" y="186.32" style="fill:#5E60F4;" width="86.189" height="5.023"/>
						<rect x="51.642" y="196.249" style="fill:#5E60F4;" width="86.189" height="5.022"/>
						<rect x="51.642" y="206.179" style="fill:#5E60F4;" width="86.189" height="5.022"/>
						<rect x="64.195" y="216.108" style="fill:#5E60F4;" width="61.083" height="5.022"/>
					</g>
				</g>
			</g>
			<g>
				<ellipse style="fill:#BACDFF;" cx="380.824" cy="454.074" rx="190.904" ry="6.292"/>
			</g>
			<g>
				<g>
					<rect x="363.901" y="397.596" style="fill:#1C2684;" width="65.05" height="54.637"/>
				</g>
				<g>
					<polygon style="fill:#0C1756;" points="428.95,397.596 428.95,452.233 421.45,452.233 372.82,397.596 					"/>
				</g>
				<g>
					<g>
						<path style="fill:#1C2684;" d="M565.492,207.671v187.682c0,9.228-7.48,16.701-16.701,16.701H244.06
							c-2.632,0-5.116-0.609-7.333-1.694c-5.551-2.712-9.368-8.411-9.368-15.007V207.671c0-9.221,7.48-16.701,16.701-16.701h304.73
							C558.012,190.97,565.492,198.45,565.492,207.671z"/>
					</g>
					<g>
						<path style="fill:#1C2684;" d="M522.842,190.97L236.728,410.36c-5.551-2.712-9.368-8.411-9.368-15.007V207.671
							c0-9.221,7.48-16.701,16.701-16.701H522.842z"/>
					</g>
				</g>
				<g>
					<g>
						<path style="fill:#BACDFF;" d="M547.445,213.892v175.247c0,4.701-3.81,8.511-8.511,8.511H253.918
							c-0.355,0-0.703-0.02-1.045-0.067c-4.205-0.509-7.467-4.098-7.467-8.444V213.892c0-4.701,3.81-8.511,8.511-8.511h285.016
							C543.634,205.381,547.445,209.191,547.445,213.892z"/>
					</g>
				</g>
				<g>
					<path style="fill:#A4BDF4;" d="M535.294,260.558v-8.077l-8.335-1.111c-1.021-5.609-3.39-10.747-6.758-15.069l5.131-6.71
						l-5.712-5.712l-6.92,5.292c-4.416-3.096-9.586-5.188-15.179-5.951l-1.131-8.482h-8.077l-1.149,8.615
						c-5.602,0.912-10.754,3.161-15.117,6.413l-6.625-5.066l-5.712,5.712l5.086,6.65c-3.297,4.479-5.545,9.777-6.381,15.533
						l-7.846,1.046v8.077l7.859,1.048c0.874,5.899,3.232,11.314,6.681,15.855l-4.578,5.987l5.712,5.712l6.06-4.634
						c4.653,3.403,10.183,5.676,16.188,6.417l0.981,7.359h8.077l1.01-7.575c5.906-0.988,11.307-3.465,15.803-7.034l6.077,4.647
						l5.711-5.712l-4.841-6.331c3.198-4.592,5.314-9.992,5.982-15.832L535.294,260.558z M492.786,276.432
						c-10.383,0-18.799-8.416-18.799-18.799c0-10.386,8.416-18.802,18.799-18.802s18.802,8.416,18.802,18.802
						C511.588,268.017,503.17,276.432,492.786,276.432z"/>
				</g>
				<g>
					<rect x="306.014" y="440.522" style="fill:#1C2684;" width="180.822" height="11.708"/>
				</g>
				<g>
					<path style="fill:#A4BDF4;" d="M539.788,317.695v-3.549l-3.662-0.488c-0.449-2.464-1.489-4.722-2.969-6.62l2.254-2.948
						l-2.509-2.509l-3.04,2.325c-1.94-1.36-4.211-2.279-6.669-2.614l-0.497-3.726h-3.549l-0.505,3.785
						c-2.461,0.401-4.725,1.389-6.641,2.817l-2.91-2.226l-2.509,2.509l2.234,2.922c-1.449,1.968-2.436,4.295-2.804,6.824
						l-3.447,0.46v3.549l3.453,0.46c0.384,2.592,1.42,4.971,2.935,6.966l-2.011,2.63l2.509,2.509l2.663-2.036
						c2.044,1.495,4.473,2.494,7.112,2.819l0.431,3.233h3.549l0.444-3.328c2.595-0.434,4.967-1.522,6.943-3.09l2.67,2.041
						l2.509-2.509l-2.127-2.781c1.405-2.017,2.335-4.39,2.628-6.955L539.788,317.695z M521.114,324.669
						c-4.562,0-8.259-3.697-8.259-8.259c0-4.563,3.697-8.26,8.259-8.26s8.26,3.697,8.26,8.26
						C529.374,320.972,525.675,324.669,521.114,324.669z"/>
				</g>
				<g>
					<g>
						<g>
							<path style="fill:#A4BDF4;" d="M330.738,302.183h-58.967c-0.37,0-0.67-0.3-0.67-0.67V232.45c0-0.37,0.3-0.67,0.67-0.67
								h43.358c0.37,0,0.67,0.299,0.67,0.67c0,0.37-0.3,0.67-0.67,0.67H272.44v67.724h58.298c0.37,0,0.67,0.3,0.67,0.67
								C331.408,301.884,331.108,302.183,330.738,302.183z"/>
						</g>
						<g>
							<circle style="fill:#A4BDF4;" cx="318.598" cy="232.017" r="4.477"/>
						</g>
					</g>
					<g>
						<g>
							<circle style="fill:#A4BDF4;" cx="389.375" cy="240.512" r="4.477"/>
						</g>
						<g>
							<path style="fill:#A4BDF4;" d="M385.568,241.226h-27.119c-0.37,0-0.67-0.299-0.67-0.67v-27.454h-64.238v19.348
								c0,0.37-0.3,0.67-0.67,0.67s-0.67-0.3-0.67-0.67v-20.018c0-0.37,0.3-0.67,0.67-0.67h65.577c0.37,0,0.67,0.299,0.67,0.67
								v27.454h26.45c0.37,0,0.67,0.299,0.67,0.67C386.238,240.927,385.938,241.226,385.568,241.226z"/>
						</g>
					</g>
					<g>
						<g>
							<circle style="fill:#A4BDF4;" cx="289.034" cy="361.168" r="4.477"/>
						</g>
						<g>
							<path style="fill:#A4BDF4;" d="M285.126,361.838h-27.119c-0.37,0-0.67-0.299-0.67-0.67v-30.213c0-0.37,0.3-0.67,0.67-0.67
								h34.195v-28.771c0-0.37,0.3-0.67,0.67-0.67s0.67,0.3,0.67,0.67v29.441c0,0.37-0.3,0.67-0.67,0.67h-34.195v28.874h26.45
								c0.37,0,0.67,0.299,0.67,0.67S285.495,361.838,285.126,361.838z"/>
						</g>
					</g>
					<g>
						<g>
							<circle style="fill:#A4BDF4;" cx="289.481" cy="386.198" r="4.477"/>
						</g>
						<g>
							<path style="fill:#A4BDF4;" d="M354.431,386.868h-61.56c-0.37,0-0.67-0.299-0.67-0.67c0-0.37,0.3-0.67,0.67-0.67h60.89
								v-24.36c0-0.37,0.3-0.67,0.67-0.67c0.37,0,0.67,0.299,0.67,0.67v25.03C355.1,386.568,354.8,386.868,354.431,386.868z"/>
						</g>
					</g>
					<g>
						<g>
							<circle style="fill:#A4BDF4;" cx="516.505" cy="390.501" r="4.477"/>
						</g>
						<g>
							<circle style="fill:#A4BDF4;" cx="523.647" cy="349.65" r="4.477"/>
						</g>
						<g>
							<path style="fill:#A4BDF4;" d="M512.855,391.345h-69.044c-0.37,0-0.67-0.299-0.67-0.67v-12.44H401.22
								c-0.37,0-0.67-0.3-0.67-0.67v-16.397c0-0.37,0.3-0.67,0.67-0.67c0.37,0,0.67,0.299,0.67,0.67v15.728h41.922
								c0.37,0,0.67,0.299,0.67,0.67v12.44h68.374c0.37,0,0.67,0.299,0.67,0.67C513.525,391.045,513.225,391.345,512.855,391.345z"
								/>
						</g>
						<g>
							<path style="fill:#A4BDF4;" d="M475.879,391.345c-0.37,0-0.67-0.299-0.67-0.67v-18.914c0-0.37,0.3-0.67,0.67-0.67h47.099
								V352.83c0-0.37,0.3-0.67,0.67-0.67c0.37,0,0.67,0.299,0.67,0.67v18.931c0,0.37-0.3,0.67-0.67,0.67h-47.099v18.244
								C476.549,391.045,476.249,391.345,475.879,391.345z"/>
						</g>
					</g>
				</g>
			</g>
			<g>
				<path style="fill:#FFFFFF;" d="M424.13,351.66h-60.686c-6.642,0-12.026-5.384-12.026-12.026v-51.911
					c0-6.642,5.384-12.026,12.026-12.026h60.686c6.642,0,12.026,5.384,12.026,12.026v51.911
					C436.156,346.276,430.772,351.66,424.13,351.66z"/>
				<g>
					<g>
						<path style="fill:#1C2684;" d="M394.175,284.076c-9.566,10.42-9.521,26.852-9.521,26.852v22.845h9.521h9.521v-22.845
							C403.696,310.928,403.741,294.496,394.175,284.076z"/>
						<path style="fill:#0C1756;" d="M393.787,284.519v49.253h0.388h9.521v-22.845c0,0,0.045-16.432-9.521-26.852
							C394.042,284.221,393.917,284.372,393.787,284.519z"/>
						<path style="fill:#5E60F4;" d="M394.303,339.197h-0.256c-1.414,0-2.56-1.146-2.56-2.56V325.72c0-1.414,1.146-2.56,2.56-2.56
							h0.256c1.414,0,2.56,1.146,2.56,2.56v10.916C396.863,338.05,395.717,339.197,394.303,339.197z"/>
						<path style="fill:#5E60F4;" d="M387.334,333.729l-0.177,3.426l-8.29,3.938v-2.816c0-6.846,2.028-10.103,5.828-15.798l0,0
							l0.177,11.251H387.334z"/>
						<path style="fill:#5E60F4;" d="M400.417,333.723v3.432l8.29,3.938v-2.816c0-6.846-1.907-10.103-5.707-15.798l0,0v11.244
							H400.417z"/>
						
							<ellipse transform="matrix(0.9239 -0.3827 0.3827 0.9239 -88.3516 174.2968)" style="fill:#F9CF70;" cx="393.948" cy="309.235" rx="5.262" ry="5.262"/>
					</g>
				</g>
				<g>
					<rect x="381.813" y="219.607" style="fill:#1C2684;" width="1.813" height="1.813"/>
					<polygon style="fill:#5E60F4;" points="383.625,219.607 381.813,221.419 383.625,221.419 					"/>
					<rect x="381.813" y="221.419" style="fill:#1C2684;" width="1.813" height="1.813"/>
					<polygon style="fill:#5E60F4;" points="383.625,221.419 381.813,223.233 383.625,223.233 					"/>
					<rect x="381.813" y="223.233" style="fill:#1C2684;" width="1.813" height="1.813"/>
					<polygon style="fill:#5E60F4;" points="383.625,223.233 381.813,225.046 383.625,225.046 					"/>
					<rect x="381.813" y="225.046" style="fill:#1C2684;" width="1.813" height="1.813"/>
					<polygon style="fill:#5E60F4;" points="383.625,225.046 381.813,226.859 383.625,226.859 					"/>
					<rect x="381.813" y="226.859" style="fill:#1C2684;" width="1.813" height="1.813"/>
					<polygon style="fill:#5E60F4;" points="383.625,226.859 381.813,228.672 383.625,228.672 					"/>
					<rect x="381.813" y="228.672" style="fill:#1C2684;" width="1.813" height="1.813"/>
					<polygon style="fill:#5E60F4;" points="383.625,228.672 381.813,230.485 383.625,230.485 					"/>
					<rect x="381.813" y="230.485" style="fill:#1C2684;" width="1.813" height="1.813"/>
					<polygon style="fill:#5E60F4;" points="383.625,230.485 381.813,232.298 383.625,232.298 					"/>
					<rect x="381.813" y="232.298" style="fill:#1C2684;" width="1.813" height="1.813"/>
					<polygon style="fill:#5E60F4;" points="383.625,232.298 381.813,234.111 383.625,234.111 					"/>
					<rect x="381.813" y="234.111" style="fill:#1C2684;" width="1.813" height="1.813"/>
					<polygon style="fill:#5E60F4;" points="383.625,234.111 381.813,235.924 383.625,235.924 					"/>
					<rect x="381.813" y="235.924" style="fill:#1C2684;" width="1.813" height="1.813"/>
					<polygon style="fill:#5E60F4;" points="383.625,235.924 381.813,237.737 383.625,237.737 					"/>
					<rect x="381.813" y="237.737" style="fill:#1C2684;" width="1.813" height="1.813"/>
					<polygon style="fill:#5E60F4;" points="383.625,237.737 381.813,239.55 383.625,239.55 					"/>
					<rect x="381.813" y="239.55" style="fill:#1C2684;" width="1.813" height="1.813"/>
					<polygon style="fill:#5E60F4;" points="383.625,239.55 381.813,241.363 383.625,241.363 					"/>
					<rect x="381.813" y="241.363" style="fill:#1C2684;" width="1.813" height="1.813"/>
					<polygon style="fill:#5E60F4;" points="383.625,241.363 381.813,243.176 383.625,243.176 					"/>
					<rect x="381.813" y="243.176" style="fill:#1C2684;" width="1.813" height="1.813"/>
					<polygon style="fill:#5E60F4;" points="383.625,243.176 381.813,244.989 383.625,244.989 					"/>
					<rect x="381.813" y="244.989" style="fill:#1C2684;" width="1.813" height="1.813"/>
					<polygon style="fill:#5E60F4;" points="383.625,244.989 381.813,246.802 383.625,246.802 					"/>
					<rect x="381.813" y="246.802" style="fill:#1C2684;" width="1.813" height="1.813"/>
					<polygon style="fill:#5E60F4;" points="383.625,246.802 381.813,248.615 383.625,248.615 					"/>
					<rect x="381.813" y="248.615" style="fill:#1C2684;" width="1.813" height="1.813"/>
					<polygon style="fill:#5E60F4;" points="383.625,248.615 381.813,250.428 383.625,250.428 					"/>
					<rect x="381.813" y="250.428" style="fill:#1C2684;" width="1.813" height="1.813"/>
					<polygon style="fill:#5E60F4;" points="383.625,250.428 381.813,252.241 383.625,252.241 					"/>
					<rect x="381.813" y="252.241" style="fill:#1C2684;" width="1.813" height="1.813"/>
					<polygon style="fill:#5E60F4;" points="383.625,252.241 381.813,254.054 383.625,254.054 					"/>
					<rect x="381.813" y="254.054" style="fill:#1C2684;" width="1.813" height="1.813"/>
					<polygon style="fill:#5E60F4;" points="383.625,254.054 381.813,255.867 383.625,255.867 					"/>
					<rect x="381.813" y="255.867" style="fill:#1C2684;" width="1.813" height="1.813"/>
					<polygon style="fill:#5E60F4;" points="383.625,255.867 381.813,257.68 383.625,257.68 					"/>
					<rect x="381.813" y="257.68" style="fill:#1C2684;" width="1.813" height="1.813"/>
					<polygon style="fill:#5E60F4;" points="383.625,257.68 381.813,259.493 383.625,259.493 					"/>
					<rect x="381.813" y="259.493" style="fill:#1C2684;" width="1.813" height="1.813"/>
					<polygon style="fill:#5E60F4;" points="383.625,259.493 381.813,261.306 383.625,261.306 					"/>
					<rect x="381.813" y="261.306" style="fill:#1C2684;" width="1.813" height="1.813"/>
					<polygon style="fill:#5E60F4;" points="383.625,261.306 381.813,263.119 383.625,263.119 					"/>
					<rect x="381.813" y="263.119" style="fill:#1C2684;" width="1.813" height="1.813"/>
					<polygon style="fill:#5E60F4;" points="383.625,263.119 381.813,264.932 383.625,264.932 					"/>
					<rect x="381.813" y="264.932" style="fill:#1C2684;" width="1.813" height="1.813"/>
					<polygon style="fill:#5E60F4;" points="383.625,264.932 381.813,266.745 383.625,266.745 					"/>
					<rect x="381.813" y="266.745" style="fill:#1C2684;" width="1.813" height="1.813"/>
					<polygon style="fill:#5E60F4;" points="383.625,266.745 381.813,268.558 383.625,268.558 					"/>
					<rect x="381.813" y="268.558" style="fill:#1C2684;" width="1.813" height="1.813"/>
					<polygon style="fill:#5E60F4;" points="383.625,268.558 381.813,270.371 383.625,270.371 					"/>
					<polygon style="fill:#F9CF70;" points="389.893,273.858 389.893,276.895 382.759,276.895 382.68,276.895 375.545,276.895 
						375.545,273.858 382.719,269.465 					"/>
					<circle style="fill:#1C2684;" cx="382.719" cy="274.274" r="1.588"/>
					<rect x="409.706" y="217.793" style="fill:#1C2684;" width="1.813" height="1.813"/>
					<polygon style="fill:#5E60F4;" points="411.519,217.793 409.706,219.607 411.519,219.607 					"/>
					<rect x="409.706" y="219.607" style="fill:#1C2684;" width="1.813" height="1.813"/>
					<polygon style="fill:#5E60F4;" points="411.519,219.607 409.706,221.419 411.519,221.419 					"/>
					<rect x="409.706" y="221.419" style="fill:#1C2684;" width="1.813" height="1.813"/>
					<polygon style="fill:#5E60F4;" points="411.519,221.419 409.706,223.233 411.519,223.233 					"/>
					<rect x="409.706" y="223.233" style="fill:#1C2684;" width="1.813" height="1.813"/>
					<polygon style="fill:#5E60F4;" points="411.519,223.233 409.706,225.046 411.519,225.046 					"/>
					<rect x="409.706" y="225.046" style="fill:#1C2684;" width="1.813" height="1.813"/>
					<polygon style="fill:#5E60F4;" points="411.519,225.046 409.706,226.859 411.519,226.859 					"/>
					<rect x="409.706" y="226.859" style="fill:#1C2684;" width="1.813" height="1.813"/>
					<polygon style="fill:#5E60F4;" points="411.519,226.859 409.706,228.672 411.519,228.672 					"/>
					<rect x="409.706" y="228.672" style="fill:#1C2684;" width="1.813" height="1.813"/>
					<polygon style="fill:#5E60F4;" points="411.519,228.672 409.706,230.485 411.519,230.485 					"/>
					<rect x="409.706" y="230.485" style="fill:#1C2684;" width="1.813" height="1.813"/>
					<polygon style="fill:#5E60F4;" points="411.519,230.485 409.706,232.298 411.519,232.298 					"/>
					<rect x="409.706" y="232.298" style="fill:#1C2684;" width="1.813" height="1.813"/>
					<polygon style="fill:#5E60F4;" points="411.519,232.298 409.706,234.111 411.519,234.111 					"/>
					<rect x="409.706" y="234.111" style="fill:#1C2684;" width="1.813" height="1.813"/>
					<polygon style="fill:#5E60F4;" points="411.519,234.111 409.706,235.924 411.519,235.924 					"/>
					<rect x="409.706" y="235.924" style="fill:#1C2684;" width="1.813" height="1.813"/>
					<polygon style="fill:#5E60F4;" points="411.519,235.924 409.706,237.737 411.519,237.737 					"/>
					<rect x="409.706" y="237.737" style="fill:#1C2684;" width="1.813" height="1.813"/>
					<polygon style="fill:#5E60F4;" points="411.519,237.737 409.706,239.55 411.519,239.55 					"/>
					<rect x="409.706" y="239.55" style="fill:#1C2684;" width="1.813" height="1.813"/>
					<polygon style="fill:#5E60F4;" points="411.519,239.55 409.706,241.363 411.519,241.363 					"/>
					<rect x="409.706" y="241.363" style="fill:#1C2684;" width="1.813" height="1.813"/>
					<polygon style="fill:#5E60F4;" points="411.519,241.363 409.706,243.176 411.519,243.176 					"/>
					<rect x="409.706" y="243.176" style="fill:#1C2684;" width="1.813" height="1.813"/>
					<polygon style="fill:#5E60F4;" points="411.519,243.176 409.706,244.989 411.519,244.989 					"/>
					<rect x="409.706" y="244.989" style="fill:#1C2684;" width="1.813" height="1.813"/>
					<polygon style="fill:#5E60F4;" points="411.519,244.989 409.706,246.802 411.519,246.802 					"/>
					<rect x="409.706" y="246.802" style="fill:#1C2684;" width="1.813" height="1.813"/>
					<polygon style="fill:#5E60F4;" points="411.519,246.802 409.706,248.615 411.519,248.615 					"/>
					<rect x="409.706" y="248.615" style="fill:#1C2684;" width="1.813" height="1.813"/>
					<polygon style="fill:#5E60F4;" points="411.519,248.615 409.706,250.428 411.519,250.428 					"/>
					<rect x="409.706" y="250.428" style="fill:#1C2684;" width="1.813" height="1.813"/>
					<polygon style="fill:#5E60F4;" points="411.519,250.428 409.706,252.241 411.519,252.241 					"/>
					<rect x="409.706" y="252.241" style="fill:#1C2684;" width="1.813" height="1.813"/>
					<polygon style="fill:#5E60F4;" points="411.519,252.241 409.706,254.054 411.519,254.054 					"/>
					<rect x="409.706" y="254.054" style="fill:#1C2684;" width="1.813" height="1.813"/>
					<polygon style="fill:#5E60F4;" points="411.519,254.054 409.706,255.867 411.519,255.867 					"/>
					<rect x="409.706" y="255.867" style="fill:#1C2684;" width="1.813" height="1.813"/>
					<polygon style="fill:#5E60F4;" points="411.519,255.867 409.706,257.68 411.519,257.68 					"/>
					<rect x="409.706" y="257.68" style="fill:#1C2684;" width="1.813" height="1.813"/>
					<polygon style="fill:#5E60F4;" points="411.519,257.68 409.706,259.493 411.519,259.493 					"/>
					<rect x="409.706" y="259.493" style="fill:#1C2684;" width="1.813" height="1.813"/>
					<polygon style="fill:#5E60F4;" points="411.519,259.493 409.706,261.306 411.519,261.306 					"/>
					<rect x="409.706" y="261.306" style="fill:#1C2684;" width="1.813" height="1.813"/>
					<polygon style="fill:#5E60F4;" points="411.519,261.306 409.706,263.119 411.519,263.119 					"/>
					<rect x="409.706" y="263.119" style="fill:#1C2684;" width="1.813" height="1.813"/>
					<polygon style="fill:#5E60F4;" points="411.519,263.119 409.706,264.932 411.519,264.932 					"/>
					<rect x="409.706" y="264.932" style="fill:#1C2684;" width="1.813" height="1.813"/>
					<polygon style="fill:#5E60F4;" points="411.519,264.932 409.706,266.745 411.519,266.745 					"/>
					<rect x="409.706" y="266.745" style="fill:#1C2684;" width="1.813" height="1.813"/>
					<polygon style="fill:#5E60F4;" points="411.519,266.745 409.706,268.558 411.519,268.558 					"/>
					<rect x="409.706" y="268.558" style="fill:#1C2684;" width="1.813" height="1.813"/>
					<polygon style="fill:#5E60F4;" points="411.519,268.558 409.706,270.371 411.519,270.371 					"/>
					<polygon style="fill:#F9CF70;" points="417.786,273.858 417.786,276.895 410.652,276.895 410.573,276.895 403.438,276.895 
						403.438,273.858 410.612,269.465 					"/>
					<circle style="fill:#1C2684;" cx="410.612" cy="274.002" r="1.588"/>
					<polygon style="fill:#1C2684;" points="383.625,219.607 381.813,219.607 381.813,217.793 383.625,218.237 					"/>
					<polygon style="fill:#5E60F4;" points="383.625,218.237 381.813,219.607 383.625,219.607 					"/>
					<polygon style="fill:#F9CF70;" points="396.315,222.736 413.792,217.75 413.792,214.285 396.315,214.285 396.225,214.285 
						378.748,214.285 378.748,217.75 396.225,222.736 					"/>
					<path style="fill:#1C2684;" d="M397.486,217.213c0-0.877-0.711-1.588-1.588-1.588s-1.588,0.711-1.588,1.588
						c0,0.877,0.711,1.588,1.588,1.588S397.486,218.09,397.486,217.213z"/>
					
						<rect x="392.953" y="201.721" transform="matrix(-1 -1.224647e-16 1.224647e-16 -1 791.3455 408.8817)" style="fill:#F9CF70;" width="5.439" height="5.439"/>
					
						<rect x="392.953" y="196.282" transform="matrix(-1 -1.224647e-16 1.224647e-16 -1 791.3455 398.0035)" style="fill:#F9CF70;" width="5.439" height="5.439"/>
					
						<rect x="392.953" y="190.843" transform="matrix(-1 -1.224647e-16 1.224647e-16 -1 791.3455 387.1254)" style="fill:#F9CF70;" width="5.439" height="5.439"/>
					
						<rect x="392.953" y="185.404" transform="matrix(-1 -1.224647e-16 1.224647e-16 -1 791.3455 376.2473)" style="fill:#F9CF70;" width="5.439" height="5.439"/>
					
						<rect x="392.953" y="179.965" transform="matrix(-1 -1.224647e-16 1.224647e-16 -1 791.3455 365.3691)" style="fill:#F9CF70;" width="5.439" height="5.439"/>
					
						<rect x="392.953" y="174.526" transform="matrix(-1 -1.224647e-16 1.224647e-16 -1 791.3455 354.491)" style="fill:#F9CF70;" width="5.439" height="5.439"/>
					
						<rect x="392.953" y="-12.288" transform="matrix(-1 -1.224647e-16 1.224647e-16 -1 791.3455 162.2381)" style="fill:#F9CF70;" width="5.439" height="186.814"/>
					<polygon style="fill:#F9CF70;" points="396.315,205.99 413.792,210.976 413.792,214.441 396.315,214.441 396.225,214.441 
						378.748,214.441 378.748,210.976 396.225,205.99 					"/>
					<path style="fill:#1C2684;" d="M397.486,211.514c0,0.877-0.711,1.588-1.588,1.588s-1.588-0.711-1.588-1.588
						c0-0.877,0.711-1.588,1.588-1.588S397.486,210.636,397.486,211.514z"/>
				</g>
			</g>
			<g>
				<path style="fill:#1C2684;" d="M334.079,367.066c-3.666,1.65-6.843,2.2-11.181,2.2c-10.142,0-19.063-7.271-19.063-19.246
					c0-12.464,9.043-23.278,22.851-23.278c10.753,0,18.452,7.393,18.452,17.657c0,8.92-5.01,14.541-11.609,14.541
					c-2.872,0-4.949-1.466-5.254-4.705h-0.122c-1.894,3.116-4.643,4.705-7.882,4.705c-3.971,0-6.843-2.933-6.843-7.943
					c0-7.454,5.499-14.236,14.297-14.236c2.688,0,5.743,0.672,7.271,1.527l-1.833,11.303c-0.611,3.605-0.183,5.254,1.527,5.316
					c2.627,0.061,5.927-3.299,5.927-10.326c0-7.943-5.132-14.114-14.603-14.114c-9.348,0-17.535,7.332-17.535,19.002
					c0,10.203,6.537,16.008,15.641,16.008c3.116,0,6.415-0.672,8.859-1.955L334.079,367.066z M328.641,341.832
					c-0.489-0.122-1.1-0.244-1.894-0.244c-4.032,0-7.21,3.971-7.21,8.676c0,2.322,1.039,3.788,3.055,3.788
					c2.261,0,4.643-2.872,5.193-6.415L328.641,341.832z"/>
			</g>
			<g>
				<circle style="fill:#5E60F4;" cx="305.786" cy="270.401" r="35.473"/>
				<g>
					<g>
						<g>
							<g>
								<path style="fill:#FFFFFF;" d="M317.573,284.467c0,1.237-1.003,2.24-2.24,2.24h-19.095c-1.237,0-2.239-1.003-2.239-2.24
									v-19.095c0-1.237,1.001-2.239,2.239-2.239h19.095c1.238,0,2.24,1.002,2.24,2.239V284.467z"/>
							</g>
							<g>
								<path style="fill:#212FAD;" d="M317.573,266.134c0,1.237-1.003,2.239-2.24,2.239h-19.095c-1.237,0-2.239-1.002-2.239-2.239
									v-0.762c0-1.237,1.001-2.239,2.239-2.239h19.095c1.238,0,2.24,1.002,2.24,2.239V266.134z"/>
							</g>
							<g>
								<path style="fill:#FFFFFF;" d="M299.19,266.796c-0.87,0-1.575-0.705-1.575-1.575v-6.316c0-2.653,2.157-4.81,4.81-4.81h6.719
									c2.652,0,4.811,2.158,4.811,4.81v6.299c0,0.869-0.705,1.575-1.576,1.575c-0.869,0-1.573-0.705-1.573-1.575v-6.299
									c0-0.916-0.746-1.661-1.662-1.661h-6.719c-0.916,0-1.66,0.745-1.66,1.661v6.316
									C300.765,266.091,300.059,266.796,299.19,266.796z"/>
							</g>
						</g>
					</g>
				</g>
			</g>
			<g>
				<g>
					<g>
						<path style="fill:#FFFFFF;" d="M429.311,266.891h136.604c7.458,0,13.505-6.046,13.505-13.505v0
							c0-7.458-6.046-13.505-13.505-13.505H429.311c-7.458,0-13.505,6.046-13.505,13.505v0
							C415.806,260.845,421.853,266.891,429.311,266.891z"/>
					</g>
					<g>
						
							<ellipse transform="matrix(0.7071 -0.7071 0.7071 0.7071 -14.082 472.5465)" style="fill:#5E60F4;" cx="563.373" cy="253.272" rx="9.783" ry="9.783"/>
						<path style="fill:#FFFFFF;" d="M564.401,248.872c-0.708-0.708-1.636-1.062-2.565-1.062c-0.928,0-1.856,0.354-2.564,1.062
							c-1.416,1.416-1.416,3.713,0,5.129c0.708,0.708,1.636,1.062,2.564,1.062c0.928,0,1.856-0.354,2.565-1.062
							C565.817,252.584,565.817,250.288,564.401,248.872z M561.836,254.787c-0.895,0-1.736-0.349-2.369-0.981
							c-0.633-0.633-0.981-1.474-0.981-2.369c0-0.895,0.349-1.736,0.981-2.369c0.633-0.633,1.474-0.981,2.369-0.981
							c0.895,0,1.736,0.349,2.369,0.981c0.633,0.633,0.981,1.474,0.981,2.369c0,0.895-0.348,1.736-0.981,2.369
							C563.572,254.438,562.731,254.787,561.836,254.787z M568.903,257.386l-3.245-3.245l-0.363,0.363l-0.699-0.699l-0.391,0.391
							l0.699,0.699l-0.363,0.363l3.245,3.245c0.154,0.154,0.356,0.231,0.558,0.231c0.202,0,0.404-0.077,0.558-0.231l0,0
							C569.211,258.194,569.211,257.695,568.903,257.386z M568.707,258.307c-0.097,0.097-0.226,0.15-0.363,0.15
							c-0.137,0-0.266-0.053-0.363-0.15l-3.049-3.049l0.726-0.726l3.049,3.049c0.097,0.097,0.15,0.226,0.15,0.363
							S568.804,258.21,568.707,258.307z"/>
					</g>
				</g>
				<g>
					<g>
						<g>
							<g>
								<g>
									<rect x="322.588" y="133.224" style="fill:#FFFFFF;" width="37.845" height="31.2"/>
								</g>
								<g>
									<path style="fill:#5E60F4;" d="M359.135,130.514h-36.481c-1.374,0-2.488,1.114-2.488,2.488v36.481
										c0,1.374,1.114,2.488,2.488,2.488h36.481c1.374,0,2.488-1.114,2.488-2.488v-36.481
										C361.623,131.628,360.509,130.514,359.135,130.514z M357.302,146.611l-14.12,11.649l-8.633-7.018l-10.063,7.674v-24.082
										h32.816V146.611z"/>
								</g>
								<g>
									
										<ellipse transform="matrix(0.973 -0.2307 0.2307 0.973 -24.0983 83.353)" style="fill:#5E60F4;" cx="344.4" cy="144.73" rx="6.308" ry="6.307"/>
								</g>
								<g>
									
										<ellipse transform="matrix(0.2105 -0.9776 0.9776 0.2105 130.6904 450.8937)" style="fill:#FFFFFF;" cx="344.51" cy="144.532" rx="3.488" ry="3.488"/>
								</g>
							</g>
						</g>
						<g>
							<g>
								<rect x="340.617" y="-109.856" style="fill:#1C2684;" width="0.554" height="239.59"/>
							</g>
							<g>
								<g>
									<path style="fill:#1C2684;" d="M338.402,129.733c0,1.376,1.116,2.492,2.492,2.492c1.376,0,2.492-1.116,2.492-2.492
										s-1.116-2.492-2.492-2.492C339.518,127.241,338.402,128.357,338.402,129.733z"/>
								</g>
								<g>
									<path style="fill:#FFFFFF;" d="M339.716,129.733c0,0.651,0.528,1.178,1.178,1.178c0.651,0,1.178-0.527,1.178-1.178
										s-0.527-1.178-1.178-1.178C340.244,128.555,339.716,129.082,339.716,129.733z"/>
								</g>
							</g>
						</g>
					</g>
					<g>
						<g>
							<path style="fill:#5E60F4;" d="M487.47,123.653h44.341c10.239,0,18.616-8.377,18.616-18.616v-2.025
								c0-10.239-8.377-18.616-18.616-18.616H487.47c-10.239,0-18.616,8.377-18.616,18.616v2.025
								C468.855,115.276,477.232,123.653,487.47,123.653z"/>
							<path style="fill:#5E60F4;" d="M502.855,123.653l-11.405,8.908c-0.64,0.5-1.527-0.177-1.213-0.926l3.345-7.982H502.855z"/>
						</g>
						<circle style="fill:#FFFFFF;" cx="491.628" cy="103.251" r="5.573"/>
						<circle style="fill:#FFFFFF;" cx="509.172" cy="104.025" r="5.573"/>
						<circle style="fill:#FFFFFF;" cx="526.715" cy="104.798" r="5.573"/>
					</g>
					<g>
						<path style="fill:#F9CF70;" d="M497.348,176.928v35.379c0,0.323-0.139,0.615-0.361,0.82c-0.199,0.183-0.464,0.296-0.754,0.296
							h-60.64c-0.321,0-0.61-0.137-0.814-0.356c-0.187-0.199-0.301-0.467-0.301-0.76v-35.379c0-0.613,0.502-1.116,1.116-1.116h60.64
							C496.846,175.812,497.348,176.314,497.348,176.928z"/>
						<path style="opacity:0.05;fill:#050505;" d="M496.987,213.127c-0.199,0.183-0.464,0.296-0.754,0.296h-60.64
							c-0.321,0-0.61-0.137-0.814-0.356l31.104-21.211L496.987,213.127z"/>
						<path style="opacity:0.2;fill:#050505;" d="M496.987,176.108c-0.199-0.183-0.464-0.296-0.754-0.296h-60.64
							c-0.321,0-0.61,0.137-0.814,0.356l28.812,22.499c1.374,1.036,3.269,1.034,4.641-0.005L496.987,176.108z"/>
						<path style="fill:#F9CF70;" d="M496.987,176.108c-0.199-0.183-0.464-0.296-0.754-0.296h-60.64
							c-0.321,0-0.61,0.137-0.814,0.356l28.812,21.719c1.374,1.036,3.269,1.034,4.641-0.005L496.987,176.108z"/>
					</g>
					<g>
						<circle style="fill:#5E60F4;" cx="553.112" cy="193.928" r="28.913"/>
						<g>
							<path style="fill:#FFFFFF;" d="M539.458,191.019l9.332-0.049c0,0,5.075-5.182,5.849-7.412c0.408-1.177,0-4.982,0-4.982
								s3.043-0.803,3.745,1.17c0.702,1.973,1.166,2.762,1.204,3.745c0.051,1.343-1.067,5.269-1.067,5.269l10.152,0.791
								l-5.44,14.638h-11.887c0,0-1.048-0.958-1.488-1.103c-2.469-0.815-10.399,0-10.399,0V191.019z"/>
							<path style="fill:#FFFFFF;" d="M568.502,193.204h-5.51c-1.007,0-1.831-0.824-1.831-1.831l0,0
								c0-1.007,0.824-1.831,1.831-1.831h5.51c1.007,0,1.831,0.824,1.831,1.831l0,0C570.333,192.38,569.509,193.204,568.502,193.204
								z"/>
							<path style="fill:#FFFFFF;" d="M567.491,196.866h-5.51c-1.007,0-1.831-0.824-1.831-1.831l0,0
								c0-1.007,0.824-1.831,1.831-1.831h5.51c1.007,0,1.831,0.824,1.831,1.831l0,0
								C569.321,196.042,568.498,196.866,567.491,196.866z"/>
							<path style="fill:#FFFFFF;" d="M566.218,200.527h-5.51c-1.007,0-1.831-0.824-1.831-1.831v0c0-1.007,0.824-1.831,1.831-1.831
								h5.51c1.007,0,1.831,0.824,1.831,1.831v0C568.049,199.703,567.225,200.527,566.218,200.527z"/>
							<path style="fill:#FFFFFF;" d="M565.207,204.189h-5.51c-1.007,0-1.831-0.824-1.831-1.831l0,0
								c0-1.007,0.824-1.831,1.831-1.831h5.51c1.007,0,1.831,0.824,1.831,1.831l0,0
								C567.037,203.365,566.214,204.189,565.207,204.189z"/>
						</g>
					</g>
					<g>
						<g>
							<rect x="462.777" y="-62.846" style="fill:#1C2684;" width="0.554" height="239.59"/>
						</g>
						<g>
							<g>
								<path style="fill:#1C2684;" d="M460.562,176.743c0,1.376,1.116,2.492,2.492,2.492s2.492-1.116,2.492-2.492
									c0-1.376-1.116-2.492-2.492-2.492S460.562,175.367,460.562,176.743z"/>
							</g>
							<g>
								<path style="fill:#FFFFFF;" d="M461.876,176.743c0,0.651,0.528,1.178,1.178,1.178c0.651,0,1.178-0.528,1.178-1.178
									c0-0.651-0.527-1.178-1.178-1.178C462.404,175.565,461.876,176.093,461.876,176.743z"/>
							</g>
						</g>
					</g>
					<g>
						<g>
							<rect x="509.363" y="-154.852" style="fill:#1C2684;" width="0.554" height="239.59"/>
						</g>
						<g>
							<g>
								<path style="fill:#1C2684;" d="M507.148,84.738c0,1.376,1.116,2.492,2.492,2.492s2.492-1.116,2.492-2.492
									s-1.116-2.492-2.492-2.492S507.148,83.362,507.148,84.738z"/>
							</g>
							<g>
								<path style="fill:#FFFFFF;" d="M508.462,84.738c0,0.651,0.528,1.178,1.178,1.178c0.651,0,1.178-0.528,1.178-1.178
									s-0.527-1.178-1.178-1.178C508.99,83.56,508.462,84.087,508.462,84.738z"/>
							</g>
						</g>
					</g>
				</g>
			</g>
			<g>
				<g>
					<g>
						<g>
							<path style="fill:#1C2684;" d="M649.251,439.447c0,0,1.075,8.311,1.788,14.242c0.281,2.335-1.499,4.405-3.849,4.485
								c-9.017,0.308-25.872-0.094-30.493-0.304c-5.552-0.252-4.29-8.051,4.795-9.199s13.123-9.223,13.123-9.223H649.251z"/>
						</g>
						<g>
							<path style="fill:#1C2684;" d="M603.49,437.933c0,0,1.076,8.311,1.788,14.242c0.28,2.335-1.499,4.405-3.849,4.485
								c-9.017,0.307-25.872-0.094-30.493-0.304c-5.552-0.252-4.29-8.051,4.795-9.199c9.085-1.148,13.123-9.223,13.123-9.223H603.49
								z"/>
						</g>
						<g>
							<path style="fill:#5E60F4;" d="M609.33,303.653l-3.401,10.884c-1.719,5.502-3.002,11.131-3.837,16.835l-16.087,109.967
								l18.618,3.192l22.963-105.27l1.122,105.402h22.114l3.681-105.827c0.293-8.411-0.835-16.812-3.334-24.848l-4.868-15.652
								L609.33,303.653z"/>
						</g>
						<g>
							<path style="fill:#F9CF70;" d="M608.071,258.463c0,0-22.546,38.541-42.842,52.067l5.585,11.038
								c0,0,30.963-11.414,39.106-28.237C618.064,276.508,611.263,263.915,608.071,258.463z"/>
						</g>
						<g>
							<path style="fill:#F9CF70;" d="M605.743,294.893l0.007-29.932c0.443-6.644,5.962-11.807,12.621-11.807h24.775
								c4.239,0,7.675,3.436,7.675,7.675l3.298,32.691c0.402,3.982-2.178,9.865-5.611,9.899l-39.288,2.329
								C606.761,305.748,605.672,305.824,605.743,294.893z"/>
						</g>
						<g>
							<path style="fill:#EF9A72;" d="M626.015,277.794c-2.552-1.963,0.393-8.244,1.57-9.029c0,0-2.355-1.374-4.122,0
								c-1.767,1.374-4.122-1.767-1.178-2.944s6.477-0.981,11.973,3.337s11.188,8.636,11.188,8.636l-4.711,6.87
								C640.736,284.663,628.567,279.757,626.015,277.794z"/>
						</g>
						<g>
							<path style="fill:#F9CF70;" d="M646.429,253.848l36.309,28.03c0,0,3.192,16.623-15.958,14.628
								c-19.15-1.995-33.379-14.628-33.379-14.628l6.915-9.176l9.708,1.995L646.429,253.848z"/>
						</g>
						<g>
							<path style="fill:#BDC3C7;" d="M562.502,282.192h24.963c2.152,0,4.056,1.392,4.709,3.443l10.348,32.499
								c1.016,3.191-1.369,6.448-4.719,6.442l-24.025-0.046c-2.1-0.004-3.969-1.335-4.658-3.319l-11.286-32.453
								C556.717,285.546,559.102,282.192,562.502,282.192z"/>
						</g>
						<g>
							<path style="fill:#383FC6;" d="M561.324,284.498h24.963c2.152,0,4.056,1.392,4.709,3.443l10.348,32.499
								c1.016,3.191-1.369,6.448-4.719,6.442l-24.025-0.046c-2.1-0.004-3.969-1.335-4.658-3.319l-11.286-32.453
								C555.54,287.852,557.924,284.498,561.324,284.498z"/>
						</g>
						<g>
							<path style="fill:#EF9A72;" d="M567.08,318.574c0,0-3.967,1.182-5.493-2.288c-1.527-3.47-4.335-6.747-0.571-10.244
								s10.287-5.301,9.315-3.497c-0.972,1.804-3.192,3.747-3.192,3.747s4.694-0.313,5.968,1.527
								C575.604,311.428,577.847,316.421,567.08,318.574z"/>
						</g>
					</g>
					<g>
						<g>
							<path style="fill:#603814;" d="M638.748,232.678c-0.216-2.527-1.161-5.223-3.069-6.976c-3.087-2.837-8.002-3.51-12.014-2.112
								c-2.896,1.009-5.054,2.99-6.067,5.775c-0.954,2.62,0.024,6.647,1.237,8.148c0.109-1.255,0.233-2.508,0.374-3.76
								c3.706,0.352,8.268-2.768,10.102-4.388c0.049,2.095,1.496,7.133,2.137,7.982s1.468,1.769,2.481,1.444
								c0.391-0.534,1.115-1.281,1.572-1.564c0.284-0.176,0.619-0.304,0.948-0.247c0.505,0.088,0.84,0.582,0.995,1.071
								c0.323,1.02,0.09,2.197-0.598,3.017c-0.687,0.819-1.906,1.701-2.965,1.562c0.04,0.884,0.028,1.737-0.12,2.641
								c1.401-1.135,2.648-2.461,3.551-3.991C638.843,238.685,638.997,235.591,638.748,232.678z"/>
							<path style="fill:#512E12;" d="M641.21,221.683c-1.283-0.913-3.04-1.136-4.29-0.004c-0.682,0.618-1.035,1.5-1.264,2.374
								c-0.12,0.456-0.211,0.919-0.276,1.386c0.101,0.085,0.201,0.173,0.299,0.263c1.168,1.074,1.974,2.501,2.474,4.026
								c0.732-0.236,1.45-0.507,2.113-0.885c0.989-0.563,1.859-1.392,2.225-2.439C642.994,224.963,642.515,222.612,641.21,221.683z"
								/>
						</g>
						<g>
							<path style="fill:#EF9A72;" d="M633.878,242.628c-2.368,4.681-11.509,10.017-14.816,3.192
								c-0.661-1.365-0.606-2.954-0.513-4.468c0.155-2.538,0.375-5.073,0.658-7.6c3.706,0.352,8.268-2.768,10.102-4.388
								c0.049,2.095,1.496,7.133,2.137,7.982c0.641,0.849,1.468,1.769,2.481,1.444c0.391-0.534,1.115-1.281,1.572-1.564
								c0.284-0.176,0.619-0.304,0.948-0.247c0.505,0.088,0.84,0.582,0.995,1.071c0.323,1.02,0.09,2.197-0.598,3.017
								C636.159,241.886,634.939,242.769,633.878,242.628z"/>
							<g>
								<path style="fill:#561D05;" d="M629.717,237.184c-0.042-0.005-0.084-0.022-0.119-0.051c-0.884-0.74-2.161-0.99-3.252-0.637
									c-0.122,0.04-0.251-0.031-0.288-0.157c-0.037-0.126,0.032-0.261,0.154-0.3c1.253-0.406,2.663-0.13,3.678,0.72
									c0.099,0.083,0.114,0.234,0.033,0.337C629.871,237.162,629.793,237.193,629.717,237.184z"/>
								<path style="fill:#561D05;" d="M622.649,235.226c-0.037-0.004-0.073-0.018-0.106-0.041
									c-0.676-0.488-1.537-0.724-2.361-0.646c-0.126,0.012-0.239-0.085-0.249-0.217c-0.01-0.132,0.084-0.248,0.211-0.26
									c0.931-0.088,1.902,0.178,2.665,0.729c0.104,0.075,0.129,0.225,0.056,0.333
									C622.815,235.199,622.731,235.236,622.649,235.226z"/>
								<path style="fill:#BA5B45;" d="M622.537,242.051c-0.334-0.037-0.713-0.336-0.956-0.634
									c-0.141-0.173-0.367-0.511-0.296-0.828c0.09-0.403,0.479-0.613,0.822-0.798c0.17-0.092,0.331-0.179,0.419-0.269
									c0.35-0.36,0.488-0.823,0.446-1.501c-0.008-0.132,0.092-0.246,0.224-0.254c0.133-0.008,0.246,0.092,0.254,0.224
									c0.032,0.512,0.006,1.262-0.581,1.865c-0.139,0.143-0.34,0.251-0.535,0.356c-0.265,0.143-0.54,0.291-0.582,0.48
									c-0.011,0.048,0.018,0.197,0.2,0.421c0.224,0.274,0.525,0.463,0.654,0.461c0.134-0.002,0.242,0.104,0.244,0.236
									c0.002,0.132-0.103,0.242-0.236,0.244C622.589,242.055,622.563,242.054,622.537,242.051z"/>
								<path style="fill:#BA5B45;" d="M623.346,245.046c-0.968-0.109-1.9-0.525-2.614-1.198c-0.096-0.091-0.101-0.243-0.01-0.339
									c0.091-0.096,0.243-0.101,0.339-0.01c0.954,0.899,2.343,1.285,3.624,1.008c0.129-0.028,0.257,0.054,0.285,0.184
									c0.028,0.129-0.054,0.257-0.184,0.285C624.312,245.078,623.824,245.1,623.346,245.046z"/>
								<path style="fill:#561D05;" d="M627.805,239.327c-0.06,0.537-0.476,0.932-0.928,0.881c-0.452-0.051-0.77-0.527-0.71-1.065
									c0.06-0.537,0.476-0.932,0.928-0.881C627.547,238.313,627.865,238.79,627.805,239.327z"/>
								<path style="fill:#561D05;" d="M621.492,237.581c-0.051,0.452-0.401,0.784-0.782,0.742
									c-0.381-0.043-0.649-0.444-0.598-0.897c0.051-0.452,0.401-0.784,0.782-0.742
									C621.275,236.727,621.543,237.129,621.492,237.581z"/>
							</g>
							<path style="fill:#BA5B45;" d="M634.542,240.785c-0.006,0-0.013,0-0.019-0.001c-0.132-0.01-0.231-0.126-0.22-0.258
								c0.048-0.613,0.335-1.205,0.785-1.623c0.36-0.334,0.772-0.471,1.13-0.374c0.128,0.034,0.204,0.166,0.169,0.294
								c-0.034,0.128-0.165,0.204-0.294,0.169c-0.193-0.052-0.447,0.047-0.679,0.263c-0.364,0.337-0.595,0.815-0.634,1.31
								C634.771,240.689,634.666,240.785,634.542,240.785z"/>
						</g>
						<g>
							<path style="fill:#EF9A72;" d="M632.907,251.04c-0.054-1.03,1.364-8.935,1.364-8.935l0,0l-0.004,0.002
								c-1.451,2.866-5.305,5.963-8.969,6.656c-0.12,1.053-0.291,2.339-0.445,2.688c-0.272,0.618-2.763,1.287-2.763,1.287
								s1.729,3.244,5.048,3.605c3.319,0.36,7.83-2.626,7.83-2.626S632.962,252.07,632.907,251.04z"/>
							<path style="fill:#CE795F;" d="M633.047,243.933c-1.854,2.244-4.86,4.285-7.749,4.831c-0.078,0.685-0.177,1.466-0.28,2.026
								c1.077-0.073,2.044-0.686,2.917-1.328C629.97,247.967,631.867,246.132,633.047,243.933z"/>
						</g>
					</g>
				</g>
				<g>
					<path style="fill:#F9CF70;" d="M115.412,311.868c0.5-1.693,2.075-2.81,2.374-4.575c0.166-0.984-0.117-1.981-0.208-2.975
						c-0.148-1.607,0.245-3.154,0.995-4.567c0.234-0.441,1.276-1.792,2.553-2.158c1.014-1.417,2.888-1.923,4.627-2.029
						c4.287-0.259,10.31-0.021,11.944,5c0.614,1.887-0.031,4.094,0.919,5.837c0.637,1.168,1.872,1.885,2.649,2.965
						c0.9,1.251,1.017,3.338,0.649,4.804c-0.344,1.371-1.71,2.381-1.912,3.739c-0.177,1.195,0.906,2.15,1.488,3.208
						c0.755,1.372,0.639,3.177-0.285,4.441c-0.427,0.584-1.073,1.075-1.796,1.061c-0.613-0.012-1.156-0.377-1.65-0.738
						c-1.049-0.767-2.074-1.59-3.254-2.133c-1.18-0.543-2.564-0.785-3.783-0.335c-0.999,0.368-1.779,1.15-2.66,1.748
						c-2.049,1.39-5.267,1.542-6.664-0.502c-0.876-1.281-0.765-2.961-0.877-4.509c-0.226-3.124-1.511-2.488-3.348-3.777
						C115.744,315.371,114.895,313.62,115.412,311.868z"/>
					<g>
						<g>
							<path style="fill:#5E60F4;" d="M120.518,347.509c0,0-39.513-1.334-48.519,46.405s16.17,63.887,53.379,63.589
								c29.663-0.238,61.744-1.645,61.744-1.645s19.76-11.682,15.147-40.555C197.584,385.986,203.127,349.194,120.518,347.509z"/>
							<path style="fill:#4B53E2;" d="M116.226,355.509c0,0-21.288,28.923-14.698,41.293c9.95,18.677,71.315,10.203,78.827,3.756
								S170.393,351.225,116.226,355.509z"/>
						</g>
						<g>
							<path style="fill:#AE6B2B;" d="M158.899,337.763c0,0,11.242,18.742,12.731,25.463l-6.319,2.29
								c0,0-10.899-18.041-11.95-21.658C153.361,343.858,156.19,338.17,158.899,337.763z"/>
							<path style="fill:#AE6B2B;" d="M212.67,426.022c0,0,6.252,13.597,10.826,17.707l7.729-5.246c0,0-3.807-6.827-8.487-17.661
								L212.67,426.022z"/>
							<path style="fill:#1C2684;" d="M144.439,321.451c2.384,0.304,7.776,2.259,11.995,8.728c3.676,5.638,4.189,8.202,4.189,8.202
								s-4.237,3.092-7.533,3.514C153.09,341.895,144.404,325.261,144.439,321.451z"/>
							<g>
								<defs>
									<path id="SVGID_00000152234545983174057270000005016485957234169476_" d="M146.776,321.738
										c9.022,6.066,8.977,20.061,8.526,21.745c-1.208,4.513-7.814,23.133-7.814,23.133s-30.372,21.076-36.009,4.933
										c0,0,3.83-14.119,6.095-19.815c0,0-8.444-23.116-5.267-28.619c3.721-1.445,9.363-3.198,16.405-3.715
										C136.202,318.849,141.86,318.433,146.776,321.738z"/>
								</defs>
								<use xlink:href="#SVGID_00000152234545983174057270000005016485957234169476_"  style="overflow:visible;fill:#1C2684;"/>
								<clipPath id="SVGID_00000065781580636115369200000012973559255317850775_">
									<use xlink:href="#SVGID_00000152234545983174057270000005016485957234169476_"  style="overflow:visible;"/>
								</clipPath>
							</g>
							<path style="fill:#AE6B2B;" d="M120.172,342.125c0,0,1.957,10.081,1.562,13.75c0,0,14.794,0.636,24.766,3.542
								c0,0,2.398,3.249,0.276,4.892c-2.121,1.644-26.604,3.995-32.505-2.541c0,0-4.794-14.767-4.544-19.644
								C109.727,342.125,118.61,340.838,120.172,342.125z"/>
							<path style="fill:#1C2684;" d="M113.873,322.535c0,0,6.299,2.278,7.118,12.043c0.585,6.967,0.742,8.833,0.742,8.833
								s-12.556,1.018-14.193,0C107.54,343.411,106.985,323.538,113.873,322.535z"/>
							<path style="fill:#AE6B2B;" d="M162.496,425.751c0,0-1.417,14.719,0.738,20.139l8.444-0.343c0,0,1.564-11.508,1.714-21.556
								L162.496,425.751z"/>
							<path style="fill:#A6A8AB;" d="M154.532,343.483h28.761c0.886,0,1.54,1.009,1.337,2.062l-6.547,33.935h-31.584l6.695-34.704
								C153.34,344.018,153.894,343.483,154.532,343.483z"/>
							<path style="fill:#383FC6;" d="M155.302,343.483h28.76c0.886,0,1.54,1.009,1.337,2.062l-6.547,33.935H147.27l6.695-34.704
								C154.111,344.018,154.664,343.483,155.302,343.483z"/>
							<path style="fill:#F9CF70;" d="M173.777,364.76c0,0,7.242-6.278,16.098-1.459s30.067,47.156,34.332,60.661
								c0,0-4.141,6.474-10.8,8.159c0,0-26.141-32.996-30.594-50.093c0,0-7.029,2.331-11.741,0.67
								C166.36,381.036,173.777,364.76,173.777,364.76z"/>
							<path style="fill:#F9CF70;" d="M111.479,371.549c0,0-7.561,20.075,0.828,26.974c8.389,6.899,28.304,7.262,49.933-10.307
								c0,0-6.775,18.658-2.081,40.681c0,0,4.73,2.691,14.363,1.185c0,0,10.71-52.305,3.525-66.782c0,0-10.599-10.198-50.849,11.523
								C127.198,374.824,115.017,380.379,111.479,371.549z"/>
							<g>
								<path style="fill:#AE6B2B;" d="M141.622,360.715l1.714-1.989c0,0,3.146-3.891,6.217-5.232c0,0,2.241-2.141,2.918-2.138
									c0.678,0.002-0.244,3.027-2.047,4.174c0,0,2.783-0.196,3.795-0.318c0.365-0.044,5.102-2.952,5.525-2.581
									c1.449,1.274-1.442,6.099-2.218,7.431c-1.374,2.358-8.519,4.369-13.459,4.457L141.622,360.715z"/>
								<path style="fill:#FBB18F;" d="M160.124,353.421c0,0-3.195,3.066-3.833,3.324c-0.638,0.258-3.348,0.789-3.803,0.819
									c0,0,2.986,0.212,4.071-0.474C157.306,356.618,160.205,353.764,160.124,353.421z"/>
								<path style="fill:#FBB18F;" d="M159.779,355.512c0,0-2.255,2.575-3.261,2.896c-1.006,0.32-2.884,1.01-2.884,1.01
									s2.633-0.461,3.184-0.751C157.368,358.375,158.97,356.839,159.779,355.512z"/>
								<path style="fill:#FBB18F;" d="M158.457,358.418c0,0-1.185,1.155-1.779,1.429c-0.594,0.274-2.583,1.121-2.583,1.121
									s2.201-0.62,2.736-0.867C157.366,359.854,158.457,358.418,158.457,358.418z"/>
							</g>
							<path style="fill:#FFFFFF;" d="M166.857,430.538c-1.422-8.479-0.032-20.624,1.195-31.339
								c1.472-12.861,2.744-23.969-1.104-25.095c-0.893-0.26-5.184,2.246-10.616,5.421c-9.952,5.816-24.992,14.606-33.546,14.606
								c-2.477,0-4.457-0.867-5.885-2.578c-4.161-4.987-2.277-15.652-2.258-15.759l0.253,0.046
								c-0.019,0.106-1.881,10.654,2.202,15.549c1.376,1.649,3.29,2.485,5.687,2.485c8.484,0,23.488-8.769,33.416-14.571
								c5.912-3.455,9.819-5.742,10.818-5.445c4.056,1.187,2.773,12.394,1.287,25.37c-1.225,10.698-2.613,22.824-1.197,31.268
								L166.857,430.538z"/>
							<path style="fill:#FFFFFF;" d="M114.426,383.675l-0.062-0.249c3.975-0.993,8.475-7.285,8.519-7.348l0.21,0.148
								C122.906,376.488,118.493,382.659,114.426,383.675z"/>
							<path style="fill:#FFFFFF;" d="M180.655,382.646l-0.256-0.02c1.423-18.31-4.319-20.321-4.377-20.339l0.077-0.245
								C176.345,362.119,182.094,364.133,180.655,382.646z"/>
							<path style="fill:#FFFFFF;" d="M220.45,428.219c-1.154-1.117-12.154-19.136-20.992-33.615
								c-5.27-8.634-9.822-16.09-11.316-18.382c-3.95-6.058-7.903-6.124-7.947-6.124l0,0l-0.001-0.257c0.001,0,0.001,0,0.001,0
								c0.184,0,4.143,0.077,8.162,6.241c1.496,2.295,6.049,9.753,11.32,18.389c8.83,14.466,19.82,32.47,20.951,33.564
								L220.45,428.219z"/>
							<path style="fill:#FFFFFF;" d="M169.344,428.85c-4.916,0-9.546-1.718-9.611-1.743l0.091-0.24
								c0.089,0.034,8.968,3.328,15.111,0.733l0.1,0.237C173.269,428.582,171.284,428.85,169.344,428.85z"/>
							<path style="fill:#FFFFFF;" d="M212.158,430.996l-0.108-0.233c0.079-0.036,7.906-3.692,11.223-8.543l0.212,0.145
								C220.128,427.274,212.237,430.959,212.158,430.996z"/>
							<g>
								<path style="fill:#1C2684;" d="M217.422,439.741c0,0,1.748,8.196,3.048,14.026c0.512,2.295,2.878,3.656,5.121,2.95
									c8.606-2.707,24.37-8.689,28.658-10.423c5.152-2.083,1.37-9.019-7.58-7.082c-8.95,1.937-15.442-4.337-15.442-4.337
									L217.422,439.741z"/>
							</g>
							<g>
								<path style="fill:#1C2684;" d="M158.99,436.957c0,0-1.075,8.311-1.788,14.242c-0.281,2.335,1.499,4.405,3.849,4.485
									c9.017,0.307,25.872-0.094,30.493-0.304c5.552-0.252,4.29-8.051-4.795-9.199s-13.123-9.223-13.123-9.223H158.99z"/>
							</g>
						</g>
					</g>
					<path style="fill:#AE6B2B;" d="M123.876,314.055c1.567,1.698,3.215,3.214,5.546,3.637c1.944,0.353,4.097-0.238,5.399-1.724
						c1.495-1.705,1.657-4.192,1.458-6.451c-0.177-2.002-0.578-3.984-1.193-5.897c-3.225,0.677-6.755-0.122-9.427-2.05
						c-0.031,1.59-0.186,3.218-0.513,4.775c-0.327,1.557-0.972,3.083-2.08,4.224c-0.603-0.649-1.125-0.888-1.844-1.021
						c-0.725-0.134-1.341,0.702-1.371,1.438c-0.029,0.737,0.374,1.426,0.864,1.978C121.512,313.864,122.795,314.584,123.876,314.055
						z"/>
					<path style="fill:#561D05;" d="M126.929,310.03c0.16,0.508,0.638,0.811,1.066,0.676c0.428-0.135,0.645-0.657,0.485-1.165
						s-0.638-0.811-1.066-0.676C126.985,309,126.768,309.522,126.929,310.03z"/>
					<path style="fill:#561D05;" d="M132.586,307.922c0.16,0.508,0.638,0.811,1.066,0.676s0.645-0.657,0.485-1.165
						s-0.638-0.811-1.066-0.676C132.643,306.892,132.426,307.414,132.586,307.922z"/>
					<path style="fill:#561D05;" d="M131.407,311.748c0.039,0,0.079-0.01,0.115-0.033l0.081-0.049
						c0.398-0.24,1.227-0.741,0.82-1.423c-0.133-0.223-0.346-0.354-0.535-0.47c-0.06-0.037-0.121-0.074-0.177-0.114
						c-0.468-0.328-0.727-0.951-0.629-1.514c0.021-0.12-0.059-0.234-0.179-0.255c-0.119-0.021-0.234,0.059-0.254,0.179
						c-0.128,0.737,0.197,1.521,0.809,1.95c0.064,0.045,0.132,0.087,0.199,0.128c0.159,0.098,0.31,0.191,0.387,0.32
						c0.152,0.255-0.143,0.503-0.669,0.821l-0.084,0.051c-0.104,0.064-0.136,0.199-0.072,0.303
						C131.261,311.711,131.333,311.748,131.407,311.748z"/>
					<path style="fill:#561D05;" d="M129.778,314.037c0.576,0,1.221-0.046,1.846-0.214c0.928-0.251,1.7-0.754,2.173-1.417
						c0.071-0.099,0.048-0.236-0.051-0.307c-0.099-0.071-0.236-0.048-0.307,0.051c-0.414,0.58-1.1,1.024-1.93,1.248
						c-0.834,0.225-1.726,0.215-2.409,0.18c-0.12-0.006-0.225,0.087-0.231,0.209c-0.006,0.121,0.087,0.225,0.209,0.231
						C129.293,314.028,129.529,314.037,129.778,314.037z"/>
					<path style="fill:#894C1A;" d="M124.977,307.692c0.113,0,0.22-0.065,0.269-0.175c0.265-0.6,1.111-1.31,1.849-1.362
						c0.162-0.012,0.283-0.152,0.272-0.314c-0.012-0.162-0.152-0.283-0.314-0.272c-0.981,0.07-2.004,0.941-2.344,1.711
						c-0.065,0.148,0.002,0.322,0.15,0.387C124.897,307.684,124.937,307.692,124.977,307.692z"/>
					<path style="fill:#894C1A;" d="M131.384,304.774c0.055,0,0.111-0.016,0.161-0.048c0.722-0.473,1.942-0.226,2.299-0.139
						c0.157,0.038,0.316-0.058,0.355-0.216c0.038-0.158-0.058-0.316-0.216-0.355c-0.532-0.129-1.866-0.367-2.76,0.219
						c-0.136,0.089-0.173,0.271-0.085,0.406C131.195,304.727,131.288,304.774,131.384,304.774z"/>
					<path style="fill:#561D05;" d="M122.726,312.132c0.05,0,0.101-0.017,0.142-0.052c0.093-0.079,0.104-0.218,0.025-0.31
						c-0.233-0.274-0.497-0.585-0.842-0.794c-0.411-0.249-0.877-0.299-1.246-0.134c-0.111,0.05-0.161,0.18-0.111,0.291
						c0.05,0.111,0.18,0.161,0.291,0.111c0.279-0.125,0.616-0.026,0.838,0.109c0.284,0.172,0.513,0.441,0.735,0.702
						C122.602,312.105,122.664,312.132,122.726,312.132z"/>
					<path style="fill:#AE6B2B;" d="M128.41,317.424c0.324,0.111,0.659,0.203,1.012,0.267c1.6,0.29,3.341-0.06,4.633-1.022
						c0.001,1.753,0.459,3.506,1.327,5.03c-1.002,3.341-4.467,3.819-6.722,1.411C128.935,321.363,128.797,319.285,128.41,317.424z"
						/>
					<path style="fill:#561D05;" d="M134.056,316.67c0,0.626,0.06,1.251,0.174,1.866c-0.518,0.327-1.089,0.558-1.694,0.634
						c-1.43,0.181-2.787-0.498-4.034-1.269c-0.029-0.16-0.059-0.319-0.092-0.477c0.324,0.111,0.659,0.203,1.012,0.267
						C131.023,317.982,132.763,317.631,134.056,316.67z"/>
				</g>
			</g>
		</g>
	</g>
</g>
</svg>
