<svg width="415" height="109" viewBox="0 0 415 109" fill="none" xmlns="http://www.w3.org/2000/svg">
<path fill-rule="evenodd" clip-rule="evenodd" d="M63.5789 23.2859C59.8362 23.2859 56.1302 24.021 52.6724 25.4493C49.2147 26.8776 46.0728 28.9711 43.4264 31.6102C40.7799 34.2494 38.6806 37.3825 37.2483 40.8307C35.9745 43.8974 35.2505 47.1599 35.1059 50.4697C35.0728 51.2273 34.65 51.9208 33.9713 52.2592L24.7865 56.8389C24.1078 57.1773 23.6728 57.8708 23.7059 58.6284C23.8505 61.9383 24.5745 65.2008 25.8483 68.2674C27.2806 71.7156 29.3799 74.8488 32.0264 77.4879C34.6728 80.127 37.8147 82.2205 41.2724 83.6488C44.7302 85.0771 48.4362 85.8122 52.1789 85.8122C55.9216 85.8122 59.6276 85.0771 63.0854 83.6488C66.5432 82.2205 69.685 80.127 72.3314 77.4879C74.9779 74.8488 77.0772 71.7156 78.5095 68.2674C79.7833 65.2008 80.5073 61.9383 80.6519 58.6284C80.685 57.8708 81.1078 57.1773 81.7865 56.8389L90.9713 52.2592C91.65 51.9208 92.085 51.2274 92.0519 50.4697C91.9073 47.1599 91.1833 43.8974 89.9095 40.8307C88.4772 37.3825 86.3779 34.2494 83.7314 31.6102C81.085 28.9711 77.9432 26.8776 74.4854 25.4493C71.0276 24.021 67.3216 23.2859 63.5789 23.2859ZM76.7442 46.2688C77.3017 47.6111 77.6486 49.0284 77.7749 50.4709C77.841 51.2264 77.4 51.9208 76.7213 52.2592L67.5365 56.8389C66.8578 57.1773 66.441 57.8718 66.3749 58.6272C66.2486 60.0697 65.9017 61.487 65.3442 62.8293C64.6281 64.5534 63.5784 66.12 62.2552 67.4395C60.9319 68.7591 59.361 69.8058 57.6321 70.52C55.9033 71.2341 54.0502 71.6017 52.1789 71.6017C50.3076 71.6017 48.4546 71.2341 46.7257 70.52C44.9968 69.8058 43.4259 68.7591 42.1026 67.4395C40.7794 66.12 39.7298 64.5534 39.0136 62.8293C38.4561 61.487 38.1092 60.0697 37.9829 58.6272C37.9168 57.8718 38.3578 57.1773 39.0365 56.8389L48.2213 52.2592C48.9 51.9208 49.3168 51.2264 49.3829 50.4709C49.5092 49.0284 49.8561 47.6111 50.4136 46.2688C51.1297 44.5447 52.1794 42.9782 53.5026 41.6586C54.8259 40.339 56.3968 39.2923 58.1257 38.5781C59.8546 37.864 61.7076 37.4964 63.5789 37.4964C65.4502 37.4964 67.3033 37.864 69.0321 38.5781C70.761 39.2923 72.3319 40.339 73.6552 41.6586C74.9784 42.9782 76.0281 44.5447 76.7442 46.2688Z" fill="#E22935"></path>
<path fill-rule="evenodd" clip-rule="evenodd" d="M63.5789 0.549072C56.8421 0.549072 50.1712 1.87231 43.9472 4.44323C37.7232 7.01416 32.068 10.7824 27.3043 15.5329C22.5407 20.2833 18.762 25.9229 16.1839 32.1297C13.7642 37.9551 12.4467 44.173 12.2939 50.4695C12.2755 51.2276 11.85 51.9208 11.1713 52.2592L1.98646 56.8389C1.3078 57.1773 0.875522 57.8706 0.893916 58.6287C1.04669 64.9251 2.36422 71.143 4.78389 76.9685C7.36195 83.1752 11.1407 88.8148 15.9043 93.5653C20.668 98.3157 26.3232 102.084 32.5473 104.655C38.7713 107.226 45.4421 108.549 52.1789 108.549C58.9157 108.549 65.5866 107.226 71.8106 104.655C78.0346 102.084 83.6898 98.3157 88.4535 93.5653C93.2171 88.8148 96.9959 83.1752 99.5739 76.9685C101.994 71.143 103.311 64.9251 103.464 58.6287C103.482 57.8705 103.908 57.1773 104.586 56.8389L113.771 52.2592C114.45 51.9208 114.882 51.2276 114.864 50.4695C114.711 44.173 113.394 37.9551 110.974 32.1297C108.396 25.9229 104.617 20.2833 99.8535 15.5329C95.0898 10.7824 89.4346 7.01416 83.2106 4.44324C76.9866 1.87231 70.3157 0.549072 63.5789 0.549072ZM89.2081 58.6286C89.2336 57.8707 89.6578 57.1773 90.3365 56.8389L99.5213 52.2592C100.2 51.9208 100.634 51.2275 100.608 50.4696C100.459 46.0397 99.5121 41.669 97.8086 37.5678C95.9467 33.0852 93.2176 29.0121 89.7772 25.5812C86.3368 22.1504 82.2524 19.4288 77.7573 17.5721C73.2622 15.7153 68.4444 14.7596 63.5789 14.7596C58.7134 14.7596 53.8956 15.7153 49.4005 17.572C44.9054 19.4288 40.821 22.1504 37.3806 25.5812C33.9402 29.0121 31.2111 33.0852 29.3492 37.5678C27.6457 41.669 26.6985 46.0396 26.5497 50.4696C26.5242 51.2275 26.1 51.9208 25.4213 52.2592L16.2365 56.8389C15.5578 57.1773 15.1242 57.8707 15.1497 58.6286C15.2985 63.0585 16.2457 67.4291 17.9492 71.5303C19.8111 76.013 22.5402 80.086 25.9806 83.5169C29.421 86.9478 33.5054 89.6693 38.0005 91.5261C42.4956 93.3829 47.3134 94.3385 52.1789 94.3385C57.0444 94.3385 61.8622 93.3829 66.3573 91.5261C70.8524 89.6693 74.9368 86.9478 78.3772 83.5169C81.8176 80.086 84.5467 76.013 86.4087 71.5303C88.1122 67.4291 89.0593 63.0585 89.2081 58.6286Z" fill="#E22935"></path>
<path d="M266.742 17.3772C265.223 17.3772 263.939 16.8522 262.889 15.8022C261.839 14.7522 261.314 13.4772 261.314 11.9772C261.314 10.4397 261.839 9.15532 262.889 8.12407C263.939 7.07407 265.223 6.54907 266.742 6.54907C268.261 6.54907 269.536 7.07407 270.567 8.12407C271.617 9.15532 272.142 10.4397 272.142 11.9772C272.142 13.4772 271.617 14.7522 270.567 15.8022C269.536 16.8522 268.261 17.3772 266.742 17.3772Z" fill="white"></path>
<path d="M262.27 51.0991V20.8366H271.158V51.0991H262.27Z" fill="white"></path>
<path fill-rule="evenodd" clip-rule="evenodd" d="M276.172 60.0034V20.8366H284.609V23.8459H284.719C285.251 23.3223 285.824 22.8441 286.437 22.4116C288.425 21.0241 290.712 20.3303 293.3 20.3303C295.569 20.3303 297.734 20.9209 299.797 22.1022C301.878 23.2834 303.565 25.0366 304.859 27.3616C306.153 29.6866 306.781 32.5834 306.744 36.0522C306.762 38.6772 306.397 40.9647 305.647 42.9147C304.897 44.8459 303.884 46.4491 302.609 47.7241C301.334 48.9991 299.909 49.9553 298.334 50.5928C296.759 51.2303 295.165 51.5491 293.553 51.5491C291.003 51.5491 288.715 50.8366 286.69 49.4116C286.181 49.0481 285.698 48.6544 285.241 48.2303H285.059V54.9248L276.172 60.0034ZM291.472 44.1241C292.784 44.1053 293.937 43.7584 294.931 43.0834C295.925 42.4084 296.703 41.4522 297.265 40.2147C297.828 38.9772 298.1 37.5334 298.081 35.8834C298.1 34.1959 297.819 32.7522 297.237 31.5522C296.675 30.3334 295.878 29.4053 294.847 28.7678C293.815 28.1116 292.634 27.7928 291.303 27.8116C290.047 27.7928 288.922 28.1022 287.928 28.7397C286.934 29.3772 286.147 30.3053 285.565 31.5241C284.984 32.7241 284.694 34.1772 284.694 35.8834C284.694 37.5334 284.984 38.9772 285.565 40.2147C286.165 41.4522 286.972 42.4084 287.984 43.0834C288.997 43.7584 290.159 44.1053 291.472 44.1241Z" fill="white"></path>
<path d="M320.476 51.549C318.676 51.549 316.951 51.2397 315.301 50.6209C313.67 50.0022 312.226 49.1303 310.97 48.0053C309.714 46.8615 308.767 45.5303 308.13 44.0115L315.105 40.9459C315.573 41.8272 316.276 42.6615 317.214 43.449C318.151 44.2365 319.258 44.6303 320.533 44.6303C321.208 44.6303 321.798 44.5178 322.305 44.2928C322.811 44.049 323.205 43.7397 323.486 43.3647C323.786 42.9897 323.936 42.5865 323.936 42.1553C323.936 41.6115 323.72 41.1428 323.289 40.749C322.858 40.3553 322.305 40.0178 321.63 39.7365C320.955 39.4553 320.242 39.2115 319.492 39.0053C318.761 38.799 318.086 38.6115 317.467 38.4428C316.042 38.0115 314.692 37.4209 313.417 36.6709C312.161 35.9022 311.139 34.9272 310.351 33.7459C309.564 32.5647 309.17 31.1303 309.17 29.4428C309.17 27.6615 309.63 26.0959 310.548 24.7459C311.486 23.3772 312.751 22.3084 314.345 21.5397C315.958 20.7709 317.795 20.3865 319.858 20.3865C322.426 20.3865 324.733 20.9772 326.776 22.1584C328.839 23.3397 330.301 24.9053 331.164 26.8553L324.33 29.8084C323.973 29.2084 323.448 28.6272 322.755 28.0647C322.08 27.5022 321.217 27.2209 320.167 27.2209C319.286 27.2209 318.555 27.4459 317.973 27.8959C317.392 28.3459 317.101 28.9084 317.101 29.5834C317.101 30.2584 317.392 30.8022 317.973 31.2147C318.555 31.6272 319.295 31.9834 320.195 32.2834C321.095 32.5834 322.033 32.874 323.008 33.1553C323.758 33.3615 324.63 33.6615 325.623 34.0553C326.617 34.4303 327.583 34.9459 328.52 35.6022C329.476 36.2584 330.264 37.1022 330.883 38.1334C331.52 39.1647 331.839 40.4303 331.839 41.9303C331.839 43.824 331.314 45.5022 330.264 46.9647C329.233 48.4084 327.855 49.5334 326.13 50.3397C324.423 51.1459 322.539 51.549 320.476 51.549Z" fill="white"></path>
<path d="M367.967 51.099V20.8365H376.433V24.6897H376.588C377.249 23.769 377.994 22.9909 378.823 22.3553C380.511 21.0428 382.508 20.3865 384.814 20.3865C386.727 20.3865 388.348 20.8553 389.68 21.7928C390.707 22.4916 391.544 23.4291 392.191 24.6053H392.35C393.308 23.3838 394.472 22.4275 395.839 21.7365C397.62 20.8365 399.561 20.3865 401.661 20.3865C403.667 20.3865 405.317 20.7428 406.611 21.4553C407.905 22.149 408.917 23.0678 409.648 24.2115C410.38 25.3365 410.895 26.574 411.195 27.924C411.495 29.2553 411.645 30.549 411.645 31.8053V51.099H402.702V32.9022C402.702 31.2522 402.355 29.9865 401.661 29.1053C400.986 28.2053 399.992 27.7553 398.68 27.7553C397.817 27.7553 397.048 27.9522 396.373 28.3459C395.717 28.7209 395.192 29.2928 394.798 30.0615C394.423 30.8303 394.236 31.7772 394.236 32.9022V51.099H385.348V32.9022C385.348 31.2522 385.002 29.9865 384.308 29.1053C383.614 28.2053 382.611 27.7553 381.298 27.7553C380.023 27.7553 378.964 28.1959 378.12 29.0772C377.277 29.9397 376.855 31.2334 376.855 32.9584V51.099H367.967Z" fill="white"></path>
<path d="M340.537 50.2272C342.244 51.1084 344.137 51.549 346.219 51.549C348.675 51.549 350.85 50.949 352.744 49.749C353.702 49.1323 354.574 48.4292 355.359 47.6397H355.585C355.853 48.2548 356.246 48.7986 356.766 49.2709C357.797 50.2084 359.428 50.9678 361.659 51.549L364.809 44.124C363.834 43.7678 363.187 43.3459 362.869 42.8584C362.55 42.3709 362.391 41.5834 362.391 40.4959V20.8365H353.503V38.6678C353.503 39.774 353.287 40.7303 352.856 41.5365C352.444 42.324 351.862 42.9334 351.112 43.3647C350.381 43.7959 349.528 44.0115 348.553 44.0115C347.241 44.0115 346.125 43.5615 345.206 42.6615C344.306 41.7428 343.856 40.4115 343.856 38.6678V20.8365H334.969V39.849C334.969 42.399 335.466 44.5459 336.459 46.2897C337.472 48.0147 338.831 49.3272 340.537 50.2272Z" fill="white"></path>
<path fill-rule="evenodd" clip-rule="evenodd" d="M243.025 51.549C240.118 51.549 237.465 50.8834 235.065 49.5522C232.684 48.2209 230.781 46.3834 229.356 44.0397C227.95 41.6959 227.247 38.9959 227.247 35.9397C227.247 32.8834 227.95 30.1834 229.356 27.8397C230.781 25.4959 232.684 23.6678 235.065 22.3553C237.465 21.0428 240.118 20.3865 243.025 20.3865C245.987 20.3865 248.659 21.0428 251.04 22.3553C253.422 23.6678 255.306 25.4959 256.693 27.8397C258.1 30.1834 258.803 32.8834 258.803 35.9397C258.803 38.9959 258.1 41.6959 256.693 44.0397C255.306 46.3834 253.412 48.2209 251.012 49.5522C248.631 50.8834 245.968 51.549 243.025 51.549ZM243.025 43.9553C244.412 43.9553 245.659 43.6178 246.765 42.9428C247.872 42.2678 248.743 41.3303 249.381 40.1303C250.018 38.9303 250.337 37.5334 250.337 35.9397C250.337 34.4022 250.028 33.0334 249.409 31.8334C248.79 30.6334 247.937 29.6959 246.85 29.0209C245.762 28.3272 244.506 27.9803 243.081 27.9803C241.675 27.9803 240.409 28.3178 239.284 28.9928C238.178 29.649 237.306 30.5772 236.668 31.7772C236.031 32.9772 235.712 34.3647 235.712 35.9397C235.712 37.5334 236.031 38.9303 236.668 40.1303C237.325 41.3303 238.206 42.2678 239.312 42.9428C240.418 43.6178 241.656 43.9553 243.025 43.9553Z" fill="white"></path>
<path fill-rule="evenodd" clip-rule="evenodd" d="M207.861 63.3616C205.348 63.3616 203.042 63.0522 200.942 62.4335C198.861 61.8335 197.22 61.2147 196.02 60.5772L198.945 53.6022C199.995 54.2397 201.214 54.7835 202.601 55.2335C204.007 55.7022 205.432 55.9366 206.876 55.9366C208.114 55.9366 209.398 55.7303 210.729 55.3178C212.061 54.9053 213.195 54.2491 214.132 53.3491C215.07 52.4678 215.539 51.3053 215.539 49.8616V46.9366H215.404C214.854 47.4795 214.261 47.9763 213.626 48.4272C211.62 49.8335 209.332 50.5366 206.764 50.5366C205.17 50.5366 203.586 50.2366 202.011 49.6366C200.436 49.0178 199.001 48.0897 197.707 46.8522C196.432 45.596 195.411 44.0303 194.642 42.1553C193.873 40.2803 193.489 38.0772 193.489 35.546C193.489 32.171 194.145 29.3678 195.457 27.1366C196.789 24.8866 198.495 23.1991 200.576 22.0741C202.657 20.9303 204.823 20.3585 207.073 20.3585C209.679 20.3585 211.957 21.0241 213.907 22.3553C214.533 22.7786 215.115 23.2473 215.652 23.7616H215.82V20.8085H223.892V49.3553C223.892 51.6616 223.498 53.6866 222.711 55.4303C221.923 57.1741 220.807 58.6366 219.364 59.8178C217.939 60.9991 216.251 61.8803 214.301 62.4616C212.351 63.0616 210.204 63.3616 207.861 63.3616ZM208.957 43.3085C210.307 43.3085 211.498 42.971 212.529 42.296C213.561 41.621 214.376 40.6835 214.976 39.4835C215.576 38.2647 215.876 36.8585 215.876 35.2647C215.876 33.6522 215.586 32.2741 215.004 31.1303C214.423 29.9678 213.626 29.0772 212.614 28.4585C211.601 27.8397 210.429 27.5303 209.098 27.5303C207.767 27.5303 206.576 27.8491 205.526 28.4866C204.476 29.1053 203.651 29.996 203.051 31.1585C202.47 32.321 202.179 33.6897 202.179 35.2647C202.179 36.8397 202.47 38.2366 203.051 39.4553C203.632 40.6553 204.429 41.6022 205.442 42.296C206.454 42.971 207.626 43.3085 208.957 43.3085Z" fill="white"></path>
<path fill-rule="evenodd" clip-rule="evenodd" d="M175.453 51.549C172.546 51.549 169.893 50.8834 167.493 49.5522C165.112 48.2209 163.209 46.3834 161.784 44.0397C160.378 41.6959 159.675 38.9959 159.675 35.9397C159.675 32.8834 160.378 30.1834 161.784 27.8397C163.209 25.4959 165.112 23.6678 167.493 22.3553C169.893 21.0428 172.546 20.3865 175.453 20.3865C178.415 20.3865 181.087 21.0428 183.468 22.3553C185.85 23.6678 187.734 25.4959 189.121 27.8397C190.528 30.1834 191.231 32.8834 191.231 35.9397C191.231 38.9959 190.528 41.6959 189.121 44.0397C187.734 46.3834 185.84 48.2209 183.44 49.5522C181.059 50.8834 178.396 51.549 175.453 51.549ZM175.453 43.9553C176.84 43.9553 178.087 43.6178 179.193 42.9428C180.3 42.2678 181.171 41.3303 181.809 40.1303C182.446 38.9303 182.765 37.5334 182.765 35.9397C182.765 34.4022 182.456 33.0334 181.837 31.8334C181.218 30.6334 180.365 29.6959 179.278 29.0209C178.19 28.3272 176.934 27.9803 175.509 27.9803C174.103 27.9803 172.837 28.3178 171.712 28.9928C170.606 29.649 169.734 30.5772 169.096 31.7772C168.459 32.9772 168.14 34.3647 168.14 35.9397C168.14 37.5334 168.459 38.9303 169.096 40.1303C169.753 41.3303 170.634 42.2678 171.74 42.9428C172.846 43.6178 174.084 43.9553 175.453 43.9553Z" fill="white"></path>
<path d="M135.648 51.0991V9.64282H144.873V42.8866H159.807V51.0991H135.648Z" fill="white"></path>
<path fill-rule="evenodd" clip-rule="evenodd" d="M276.184 65.9965V74.3116H275.931C275.564 73.9924 275.18 73.6924 274.777 73.4116C272.809 72.0241 270.54 71.3303 267.971 71.3303C265.702 71.3303 263.527 71.9209 261.446 73.1022C259.365 74.2834 257.677 76.0366 256.384 78.3616C255.09 80.6866 254.471 83.5834 254.527 87.0522C254.49 89.6772 254.846 91.9647 255.596 93.9147C256.346 95.8459 257.359 97.4491 258.634 98.7241C259.909 99.9991 261.334 100.955 262.909 101.593C264.484 102.23 266.077 102.549 267.69 102.549C270.24 102.549 272.527 101.837 274.552 100.412C275.567 99.6879 276.476 98.8442 277.279 97.8803H277.556C277.767 98.4234 278.087 98.939 278.518 99.4272C279.099 100.046 279.868 100.618 280.824 101.143C281.799 101.649 282.981 102.118 284.368 102.549L287.49 95.1241C286.627 94.8053 286.009 94.4209 285.634 93.9709C285.259 93.5209 285.071 92.7428 285.071 91.6366V60.9179L276.184 65.9965ZM273.259 94.0834C272.246 94.7584 271.084 95.1053 269.771 95.1241C268.477 95.1053 267.324 94.7584 266.312 94.0834C265.299 93.4084 264.512 92.4522 263.949 91.2147C263.406 89.9772 263.143 88.5334 263.162 86.8834C263.143 85.1959 263.424 83.7522 264.006 82.5522C264.587 81.3334 265.384 80.4053 266.396 79.7678C267.427 79.1116 268.609 78.7928 269.94 78.8116C271.196 78.7928 272.321 79.1022 273.315 79.7397C274.309 80.3772 275.096 81.3053 275.677 82.5241C276.259 83.7241 276.559 85.1772 276.577 86.8834C276.559 88.5334 276.259 89.9772 275.677 91.2147C275.096 92.4522 274.29 93.4084 273.259 94.0834Z" fill="#AAAAAA"></path>
<path d="M386.512 102.099V71.8365H395.119V75.8022H395.254C395.492 75.4439 395.757 75.1064 396.047 74.7897C397.097 73.6647 398.353 72.8209 399.816 72.2584C401.278 71.6772 402.844 71.3865 404.512 71.3865C406.537 71.3865 408.281 71.8553 409.744 72.7928C411.206 73.7303 412.331 75.0147 413.119 76.6459C413.906 78.2772 414.3 80.1615 414.3 82.299V102.099H405.412V84.2397C405.412 82.4209 404.981 81.0615 404.119 80.1615C403.256 79.2428 402.084 78.7834 400.603 78.7834C399.628 78.7834 398.747 78.999 397.959 79.4303C397.172 79.8428 396.544 80.4615 396.075 81.2865C395.625 82.0928 395.4 83.1053 395.4 84.324V102.099H386.512Z" fill="#AAAAAA"></path>
<path fill-rule="evenodd" clip-rule="evenodd" d="M368.244 102.549C365.337 102.549 362.684 101.883 360.284 100.552C357.903 99.2209 356 97.3834 354.575 95.0397C353.169 92.6959 352.465 89.9959 352.465 86.9397C352.465 83.8834 353.169 81.1834 354.575 78.8397C356 76.4959 357.903 74.6678 360.284 73.3553C362.684 72.0428 365.337 71.3865 368.244 71.3865C371.206 71.3865 373.878 72.0428 376.259 73.3553C378.64 74.6678 380.525 76.4959 381.912 78.8397C383.319 81.1834 384.022 83.8834 384.022 86.9397C384.022 89.9959 383.319 92.6959 381.912 95.0397C380.525 97.3834 378.631 99.2209 376.231 100.552C373.85 101.883 371.187 102.549 368.244 102.549ZM368.244 94.9553C369.631 94.9553 370.878 94.6178 371.984 93.9428C373.09 93.2678 373.962 92.3303 374.6 91.1303C375.237 89.9303 375.556 88.5334 375.556 86.9397C375.556 85.4022 375.247 84.0334 374.628 82.8334C374.009 81.6334 373.156 80.6959 372.069 80.0209C370.981 79.3272 369.725 78.9803 368.3 78.9803C366.894 78.9803 365.628 79.3178 364.503 79.9928C363.397 80.649 362.525 81.5772 361.887 82.7772C361.25 83.9772 360.931 85.3647 360.931 86.9397C360.931 88.5334 361.25 89.9303 361.887 91.1303C362.544 92.3303 363.425 93.2678 364.531 93.9428C365.637 94.6178 366.875 94.9553 368.244 94.9553Z" fill="#AAAAAA"></path>
<path d="M340.975 102.099V71.8366H349.862V102.099H340.975Z" fill="#AAAAAA"></path>
<path d="M341.593 66.8022C342.643 67.8522 343.928 68.3772 345.447 68.3772C346.965 68.3772 348.24 67.8522 349.272 66.8022C350.322 65.7522 350.847 64.4772 350.847 62.9772C350.847 61.4397 350.322 60.1553 349.272 59.1241C348.24 58.0741 346.965 57.5491 345.447 57.5491C343.928 57.5491 342.643 58.0741 341.593 59.1241C340.543 60.1553 340.018 61.4397 340.018 62.9772C340.018 64.4772 340.543 65.7522 341.593 66.8022Z" fill="#AAAAAA"></path>
<path d="M324.646 99.4553C326.465 101.518 329.24 102.549 332.971 102.549C334.115 102.549 335.24 102.446 336.346 102.24C337.471 102.033 338.456 101.724 339.3 101.312L336.431 94.3084C336.112 94.4772 335.746 94.6178 335.334 94.7303C334.921 94.8428 334.5 94.899 334.068 94.899C333.15 94.899 332.371 94.6178 331.734 94.0553C331.115 93.474 330.806 92.5365 330.806 91.2428V79.2053H337.809V71.8365H330.806V63.1178H321.918V71.8365H316.856V79.2053H321.918V91.4678C321.918 94.7115 322.828 97.374 324.646 99.4553Z" fill="#AAAAAA"></path>
<path fill-rule="evenodd" clip-rule="evenodd" d="M293.609 101.312C295.165 102.137 296.965 102.549 299.009 102.549C301.371 102.549 303.453 102.08 305.253 101.143C306.708 100.392 307.773 99.5581 308.448 98.6397H308.585C308.848 99.0897 309.199 99.5397 309.64 99.9897C310.521 100.89 311.834 101.63 313.578 102.212L314.618 102.549L317.74 95.124L317.065 94.899C316.409 94.6928 315.949 94.3272 315.687 93.8022C315.443 93.2584 315.321 92.4709 315.321 91.4397V82.3272C315.321 81.2397 315.19 80.0678 314.928 78.8115C314.684 77.5365 314.159 76.3459 313.353 75.2397C312.546 74.1147 311.309 73.1959 309.64 72.4834C307.971 71.7522 305.721 71.3865 302.89 71.3865C301.071 71.3865 299.365 71.5365 297.771 71.8365C296.196 72.1178 294.79 72.474 293.553 72.9053C292.334 73.3365 291.349 73.7678 290.599 74.199L293.553 80.8928C294.246 80.4428 295.071 80.049 296.028 79.7115C296.984 79.3553 297.978 79.0834 299.009 78.8959C300.04 78.6897 301.006 78.5865 301.906 78.5865C302.693 78.5865 303.396 78.6803 304.015 78.8678C304.634 79.0365 305.159 79.2897 305.59 79.6272C306.021 79.9647 306.34 80.3772 306.546 80.8647C306.771 81.3334 306.884 81.8584 306.884 82.4397V83.9584H301.174C298.549 83.9584 296.299 84.3615 294.424 85.1678C292.568 85.974 291.143 87.0803 290.149 88.4865C289.174 89.8928 288.687 91.5053 288.687 93.324C288.687 95.049 289.118 96.6053 289.981 97.9928C290.862 99.3803 292.071 100.487 293.609 101.312ZM302.243 89.5272H307.306V91.4115C307.306 92.5178 306.949 93.399 306.237 94.0553C305.543 94.7115 304.718 95.1803 303.762 95.4615C302.806 95.7428 301.971 95.8834 301.259 95.8834C300.49 95.8834 299.796 95.7615 299.178 95.5178C298.578 95.2553 298.109 94.899 297.771 94.449C297.434 93.9803 297.265 93.4178 297.265 92.7615C297.265 91.6553 297.687 90.8397 298.531 90.3147C299.393 89.7897 300.631 89.5272 302.243 89.5272Z" fill="#AAAAAA"></path>
<path d="M224.699 102.099V71.8365H233.305V75.8022H233.441C233.679 75.4439 233.943 75.1064 234.234 74.7897C235.284 73.6647 236.54 72.8209 238.002 72.2584C239.465 71.6772 241.03 71.3865 242.699 71.3865C244.724 71.3865 246.468 71.8553 247.93 72.7928C249.393 73.7303 250.518 75.0147 251.305 76.6459C252.093 78.2772 252.487 80.1615 252.487 82.299V102.099H243.599V84.2397C243.599 82.4209 243.168 81.0615 242.305 80.1615C241.443 79.2428 240.271 78.7834 238.79 78.7834C237.815 78.7834 236.934 78.999 236.146 79.4303C235.359 79.8428 234.73 80.4615 234.262 81.2865C233.812 82.0928 233.587 83.1053 233.587 84.324V102.099H224.699Z" fill="#AAAAAA"></path>
<path d="M203.787 102.549C201.705 102.549 199.812 102.108 198.105 101.227C196.399 100.327 195.04 99.0147 194.027 97.2897C193.033 95.5459 192.537 93.399 192.537 90.849V71.8365H201.424V89.6678C201.424 91.4115 201.874 92.7428 202.774 93.6615C203.693 94.5615 204.808 95.0115 206.121 95.0115C207.096 95.0115 207.949 94.7959 208.68 94.3647C209.43 93.9334 210.012 93.324 210.424 92.5365C210.855 91.7303 211.071 90.774 211.071 89.6678V71.8365H219.958V91.4959C219.958 92.5834 220.118 93.3709 220.437 93.8584C220.755 94.3459 221.402 94.7678 222.377 95.124L219.227 102.549C216.996 101.968 215.365 101.208 214.333 100.271C213.814 99.7986 213.42 99.2548 213.153 98.6397H212.927C212.142 99.4292 211.27 100.132 210.312 100.749C208.418 101.949 206.243 102.549 203.787 102.549Z" fill="#AAAAAA"></path>
<path fill-rule="evenodd" clip-rule="evenodd" d="M174.465 102.549C171.558 102.549 168.905 101.883 166.505 100.552C164.124 99.2209 162.221 97.3834 160.796 95.0397C159.39 92.6959 158.686 89.9959 158.686 86.9397C158.686 83.8834 159.39 81.1834 160.796 78.8397C162.221 76.4959 164.124 74.6678 166.505 73.3553C168.905 72.0428 171.558 71.3865 174.465 71.3865C177.427 71.3865 180.099 72.0428 182.48 73.3553C184.861 74.6678 186.746 76.4959 188.133 78.8397C189.54 81.1834 190.243 83.8834 190.243 86.9397C190.243 89.9959 189.54 92.6959 188.133 95.0397C186.746 97.3834 184.852 99.2209 182.452 100.552C180.071 101.883 177.408 102.549 174.465 102.549ZM174.465 94.9553C175.852 94.9553 177.099 94.6178 178.205 93.9428C179.311 93.2678 180.183 92.3303 180.821 91.1303C181.458 89.9303 181.777 88.5334 181.777 86.9397C181.777 85.4022 181.468 84.0334 180.849 82.8334C180.23 81.6334 179.377 80.6959 178.29 80.0209C177.202 79.3272 175.946 78.9803 174.521 78.9803C173.115 78.9803 171.849 79.3178 170.724 79.9928C169.618 80.649 168.746 81.5772 168.108 82.7772C167.471 83.9772 167.152 85.3647 167.152 86.9397C167.152 88.5334 167.471 89.9303 168.108 91.1303C168.765 92.3303 169.646 93.2678 170.752 93.9428C171.858 94.6178 173.096 94.9553 174.465 94.9553Z" fill="#AAAAAA"></path>
<path d="M135.58 102.099V60.6428H159.739V68.8553H144.805V78.3897H157.236V86.6022H144.805V102.099H135.58Z" fill="#AAAAAA"></path>
<path d="M114.864 50.5491H100.609C100.603 51.2757 100.176 51.9327 99.5215 52.2592L90.3366 56.8389C89.6818 57.1655 89.2638 57.8225 89.2124 58.5491H103.467C103.513 57.8223 103.932 57.1654 104.587 56.8389L113.772 52.2592C114.426 51.9327 114.852 51.2758 114.864 50.5491Z" fill="#FF6670"></path>
<path d="M0.893799 58.5491H15.1489C15.1551 57.8225 15.5818 57.1655 16.2366 56.8389L25.4215 52.2592C26.0764 51.9327 26.4943 51.2757 26.5457 50.5491H12.2906C12.2455 51.2758 11.8263 51.9327 11.1715 52.2592L1.98662 56.8389C1.33179 57.1654 0.906343 57.8223 0.893799 58.5491Z" fill="#FF6670"></path>
<path d="M35.1012 50.5491C35.0431 51.2755 34.6264 51.9327 33.9715 52.2592L24.7866 56.8389C24.1317 57.1655 23.7037 57.8227 23.7043 58.5491H37.978C37.9477 57.8242 38.3814 57.1656 39.0366 56.8389L48.2215 52.2592C48.8767 51.9325 49.2878 51.274 49.375 50.5491H35.1012Z" fill="#FF6670"></path>
<path d="M77.7801 50.5491C77.8104 51.274 77.3767 51.9325 76.7215 52.2592L67.5366 56.8389C66.8814 57.1656 66.4703 57.8242 66.3832 58.5491H80.657C80.7151 57.8227 81.1317 57.1655 81.7866 56.8389L90.9715 52.2592C91.6264 51.9327 92.0544 51.2755 92.0538 50.5491H77.7801Z" fill="#FF6670"></path>
</svg>